<?xml version="1.0" standalone="no"?>
<!DOCTYPE svg PUBLIC "-//W3C//DTD SVG 20010904//EN"
 "http://www.w3.org/TR/2001/REC-SVG-20010904/DTD/svg10.dtd">
<svg version="1.0" xmlns="http://www.w3.org/2000/svg"
 width="1536.000000pt" height="1536.000000pt" viewBox="0 0 1536.000000 1536.000000"
 preserveAspectRatio="xMidYMid meet">
<metadata>
Created by potrace 1.14, written by Peter Selinger 2001-2017
</metadata>
<g transform="translate(0.000000,1536.000000) scale(0.100000,-0.100000)"
fill="#000000" stroke="none">
<path d="M0 7680 l0 -7680 7680 0 7680 0 0 7680 0 7680 -7680 0 -7680 0 0
-7680z m3724 4393 c-5 -10 -10 -247 -11 -528 -4 -1364 -10 -1796 -25 -1811
-13 -13 -14 51 -13 513 2 303 -1 535 -7 546 -6 13 -5 17 7 17 8 0 15 4 15 10
0 5 -6 9 -12 7 -8 -1 -12 7 -10 23 1 14 2 35 2 48 0 12 6 22 13 22 8 0 8 3 -2
9 -10 6 -13 29 -12 77 0 38 2 285 4 549 2 441 3 483 20 508 20 30 45 38 31 10z
m8070 0 c7 -4 20 -20 29 -34 16 -24 16 -27 -16 -76 -17 -29 -51 -76 -73 -105
-69 -88 -569 -569 -814 -783 -74 -65 -166 -148 -205 -184 -86 -81 -246 -226
-300 -272 -22 -19 -44 -39 -50 -45 -5 -6 -40 -36 -77 -67 -67 -56 -262 -158
-377 -197 -393 -134 -551 -224 -806 -461 -55 -50 -118 -108 -140 -128 -22 -20
-94 -85 -160 -146 -66 -60 -142 -131 -170 -156 -27 -25 -86 -79 -130 -120 -44
-41 -147 -135 -230 -209 -82 -74 -230 -209 -329 -300 -100 -91 -224 -204 -276
-251 -149 -134 -446 -403 -550 -499 -141 -129 -732 -653 -840 -745 -52 -44
-172 -146 -267 -227 -339 -287 -631 -548 -1165 -1037 -70 -64 -77 -59 -10 7
59 57 321 302 383 357 24 21 96 87 159 145 64 58 140 127 170 153 43 39 51 50
39 58 -11 8 -9 9 6 5 25 -7 123 74 111 92 -3 6 -13 9 -21 6 -8 -4 -13 -10 -10
-14 5 -9 -37 -60 -49 -60 -13 0 -5 30 12 39 9 6 13 11 9 11 -4 0 -19 -7 -33
-16 -23 -16 -23 -17 -7 -30 22 -16 10 -18 -18 -3 -12 6 -18 17 -15 24 8 22
-10 27 -29 9 -11 -11 -14 -25 -10 -45 4 -18 2 -29 -4 -29 -6 0 -11 8 -11 19 0
14 -6 17 -23 14 -19 -4 -28 3 -46 32 -19 33 -19 36 -4 33 10 -2 17 -11 17 -21
-3 -30 23 -18 30 14 5 26 9 29 27 24 19 -6 21 -5 14 16 -6 22 -9 37 -13 92 -2
21 -22 23 -22 2 0 -8 5 -15 10 -15 6 0 10 -7 10 -16 0 -10 -7 -14 -22 -12 -13
2 -23 10 -23 18 0 25 -24 45 -38 31 -8 -8 -8 -11 1 -11 7 0 12 -8 12 -17 0
-12 -3 -14 -8 -6 -5 7 -13 9 -22 3 -11 -7 -11 -11 -1 -24 8 -10 9 -16 3 -16
-18 0 -31 33 -21 52 5 10 8 18 7 19 -34 9 -48 7 -48 -6 0 -8 -4 -15 -10 -15
-14 0 -12 27 3 33 8 3 6 7 -6 12 -11 5 -24 1 -36 -9 -22 -20 -31 -20 -31 -2 0
8 -8 23 -17 35 -25 29 -67 19 -60 -15 2 -13 0 -24 -4 -24 -5 0 -9 12 -9 26 0
17 -6 28 -20 31 -24 6 -25 16 -5 33 13 10 15 9 15 -9 0 -11 5 -21 11 -21 6 0
8 9 4 20 -4 11 -2 20 4 20 6 0 11 -10 11 -22 0 -18 2 -20 9 -9 14 22 -6 54
-30 48 -10 -3 -19 -1 -19 4 0 5 7 9 16 9 10 0 14 6 11 14 -3 8 1 20 10 28 14
11 15 10 9 -10 -4 -13 -3 -22 3 -22 13 0 19 10 25 43 2 15 8 32 12 39 4 7 -52
-45 -124 -116 -72 -71 -136 -132 -143 -136 -6 -5 -8 -13 -4 -20 5 -9 4 -11 -4
-6 -7 5 -138 -119 -354 -335 -707 -707 -977 -972 -983 -967 -17 18 96 155 271
328 86 85 578 577 1093 1093 1820 1822 3575 3569 3610 3593 30 21 31 49 1 33
-17 -8 -23 -8 -29 1 -4 7 -13 9 -20 5 -9 -5 -11 -4 -6 4 5 7 16 9 29 5 20 -6
20 -6 3 11 -13 13 -20 15 -29 6 -20 -20 -45 -12 -59 19 -7 17 -16 30 -20 30
-5 0 -8 16 -8 36 0 21 -6 42 -15 48 -9 7 -16 32 -18 67 -3 47 0 58 16 68 14 9
18 21 15 41 -2 16 -1 27 4 24 4 -3 8 6 8 20 0 15 5 25 12 23 7 -1 14 8 16 21
2 12 10 22 18 22 8 0 14 7 14 15 0 8 4 15 9 15 5 0 19 16 32 35 23 34 103 101
111 94 2 -2 19 8 37 24 18 15 39 27 47 27 8 0 14 5 14 10 0 6 6 10 14 10 8 0
16 4 18 9 6 17 161 51 262 57 58 4 104 11 109 18 5 8 9 7 16 -3 5 -7 13 -11
18 -8 8 5 111 -18 121 -28 3 -3 11 0 19 6 10 9 18 8 31 -5 10 -9 25 -16 33
-16 32 -1 52 -29 57 -80 4 -47 6 -50 22 -35 21 19 31 19 24 0 -11 -26 5 -64
33 -78 26 -14 26 -15 5 -21 -17 -6 -21 -14 -19 -39 2 -25 7 -32 24 -31 13 0
19 -4 16 -12 -2 -7 1 -14 9 -17 7 -2 1 -2 -14 0 -20 3 -28 0 -28 -11 0 -18
-78 -44 -154 -52 -26 -2 -56 -9 -66 -14 -10 -6 -34 -11 -52 -11 -31 -2 -31 -2
-5 -6 51 -8 547 88 683 133 178 57 373 172 529 311 132 117 261 270 252 297
-3 8 -200 13 -623 19 -915 12 -1032 5 -1251 -68 -125 -42 -225 -92 -323 -160
-94 -67 -163 -127 -448 -395 -528 -497 -944 -869 -1065 -954 -227 -158 -459
-247 -787 -303 -97 -17 -197 -18 -1265 -18 l-1160 0 1 1040 c1 573 -2 1067 -7
1099 -4 32 -15 66 -25 77 -22 25 -27 19 -13 -17 8 -21 11 -333 10 -1123 -1
-1005 -2 -1096 -17 -1113 -10 -10 -22 -18 -28 -18 -14 0 -20 2278 -7 2294 11
13 8023 12 8045 -1z m-35 -1298 c1 -462 -3 -853 -7 -869 -4 -16 -12 -31 -18
-33 -6 -2 -7 29 -2 84 4 49 7 403 7 788 -1 819 0 929 11 895 4 -14 8 -403 9
-865z m-2169 455 c0 -5 -7 -10 -16 -10 -8 0 -12 5 -9 10 3 6 10 10 16 10 5 0
9 -4 9 -10z m1775 -120 c-3 -5 -11 -10 -16 -10 -6 0 -7 5 -4 10 3 6 11 10 16
10 6 0 7 -4 4 -10z m-45 -35 c-7 -8 -17 -15 -22 -15 -11 0 14 29 26 30 5 0 3
-7 -4 -15z m-1630 -15 c0 -5 -6 -10 -14 -10 -8 0 -18 5 -21 10 -3 6 3 10 14
10 12 0 21 -4 21 -10z m1565 -40 c-10 -11 -21 -18 -23 -15 -3 3 3 12 14 20 27
20 30 18 9 -5z m45 -134 c0 -3 -4 -8 -10 -11 -5 -3 -10 -1 -10 4 0 6 5 11 10
11 6 0 10 -2 10 -4z m-100 -94 c0 -9 -54 -61 -80 -77 -8 -5 3 12 25 38 39 45
55 56 55 39z m115 -18 c-16 -14 -45 -39 -64 -55 -42 -37 -56 -29 -16 9 28 26
95 71 105 71 3 0 -8 -11 -25 -25z m-330 -74 c-3 -5 -16 -10 -28 -10 -18 0 -19
2 -7 10 20 13 43 13 35 0z m160 0 c-3 -5 -11 -10 -16 -10 -6 0 -7 5 -4 10 3 6
11 10 16 10 6 0 7 -4 4 -10z m49 -15 c3 -9 0 -15 -8 -15 -7 0 -24 -12 -39 -27
-14 -16 -47 -44 -74 -63 -26 -19 -54 -41 -61 -48 -8 -6 -22 -17 -33 -22 -11
-7 -19 -21 -19 -37 0 -25 -1 -26 -14 -8 -12 17 -15 16 -39 -20 -21 -30 -28
-35 -33 -22 -5 15 45 77 64 77 4 0 24 15 44 33 20 17 58 48 85 67 26 19 61 49
76 67 32 37 42 40 51 18z m371 -70 c-1 -30 -4 -57 -8 -61 -4 -4 -7 20 -7 54 0
34 3 62 8 62 4 0 7 -25 7 -55z m-264 -14 c-19 -14 -46 -38 -60 -52 -14 -14
-45 -38 -68 -54 -24 -15 -43 -31 -43 -35 0 -4 -29 -29 -65 -55 -36 -27 -65
-52 -65 -57 0 -4 -7 -8 -15 -8 -8 0 -25 -11 -39 -25 -34 -34 -61 -33 -38 1 4
6 66 55 137 108 112 83 165 125 218 171 25 21 62 43 67 38 3 -3 -10 -17 -29
-32z m-201 -51 c0 -5 -4 -10 -10 -10 -5 0 -10 5 -10 10 0 6 5 10 10 10 6 0 10
-4 10 -10z m450 -29 c0 -5 -34 -37 -76 -72 -42 -35 -102 -87 -133 -114 -125
-113 -131 -117 -165 -111 -17 3 -36 2 -41 -2 -6 -4 -56 -59 -111 -122 -151
-171 -562 -581 -944 -940 -96 -90 -240 -226 -320 -301 -80 -75 -169 -157 -198
-183 -29 -25 -88 -79 -130 -120 -70 -66 -171 -158 -631 -572 -189 -170 -260
-237 -240 -227 9 4 50 38 90 75 186 167 320 286 384 340 75 63 229 205 272
250 14 15 30 25 34 22 5 -3 12 1 15 10 3 9 12 12 21 9 11 -4 14 -3 9 6 -5 7 0
21 10 32 17 19 18 19 40 -2 13 -12 28 -18 35 -14 8 6 10 4 4 -4 -4 -7 -16 -11
-26 -8 -10 3 -24 -2 -31 -11 -7 -8 -26 -23 -42 -33 -30 -18 -29 -20 19 -33 11
-3 0 -4 -25 -1 -33 3 -40 1 -27 -6 22 -13 22 -30 0 -22 -11 4 -14 3 -9 -5 9
-15 5 -15 -29 -2 -17 7 -24 7 -20 0 3 -6 13 -10 21 -10 8 0 14 -4 14 -10 0 -5
-6 -10 -12 -10 -9 0 -8 -4 2 -11 12 -8 9 -10 -12 -6 -15 2 -27 1 -26 -2 0 -3
0 -17 -1 -31 -1 -22 -3 -23 -12 -7 -14 23 -31 11 -24 -16 5 -16 4 -18 -3 -8
-7 10 -14 11 -28 2 -13 -7 -14 -10 -5 -11 19 0 -56 -70 -77 -71 -11 0 -12 -2
-4 -6 6 -2 12 -14 11 -26 0 -21 -1 -21 -9 -2 -7 18 -8 18 -14 3 -3 -10 -9 -26
-13 -35 -3 -10 -6 -21 -5 -24 1 -4 -8 -15 -18 -24 -11 -10 -20 -24 -20 -30 0
-7 -8 -12 -17 -11 -11 0 -19 -7 -21 -21 -2 -12 -9 -27 -17 -33 -8 -6 -12 -17
-9 -24 3 -7 -10 -18 -31 -26 -39 -15 -46 -30 -15 -30 11 0 20 -4 20 -10 0 -5
-11 -10 -25 -10 -14 0 -25 5 -25 10 0 6 -7 10 -15 10 -8 0 -15 -4 -15 -10 0
-5 5 -10 10 -10 6 0 10 -7 10 -15 0 -14 -11 -19 -36 -16 -6 1 -17 -6 -25 -15
-10 -13 -10 -19 0 -36 11 -17 10 -19 -6 -14 -14 4 -26 -3 -41 -24 -12 -16 -22
-35 -22 -43 0 -19 -21 -37 -42 -37 -12 0 -18 -7 -17 -22 0 -13 3 -17 6 -10 7
17 33 15 33 -3 0 -8 -7 -15 -15 -15 -9 0 -15 -9 -15 -24 0 -13 -7 -26 -15 -30
-20 -7 -19 -24 3 -29 13 -4 11 -5 -5 -6 -13 0 -23 -6 -23 -11 0 -6 -11 -15
-25 -20 -27 -10 -34 -30 -10 -30 25 0 17 -24 -15 -45 -16 -11 -30 -26 -30 -32
0 -7 -5 -13 -12 -13 -6 0 -9 -3 -6 -6 7 -6 50 14 58 27 3 4 12 4 20 -1 13 -8
13 -10 -1 -10 -9 0 -19 -9 -22 -20 -3 -14 -14 -20 -31 -20 -14 0 -26 -4 -26
-10 0 -5 5 -10 10 -10 6 0 10 -4 10 -10 0 -14 -37 -12 -43 3 -4 9 -6 9 -6 0
-1 -7 5 -18 13 -25 17 -17 3 -72 -30 -111 -13 -16 -24 -33 -24 -38 0 -5 -7 -9
-15 -9 -8 0 -15 -7 -15 -15 0 -9 -6 -18 -14 -21 -8 -3 -17 -12 -20 -19 -3 -8
0 -12 7 -9 7 2 18 -5 25 -17 8 -12 9 -18 3 -15 -5 4 -22 -5 -37 -19 -19 -18
-23 -25 -11 -25 9 0 19 5 22 10 3 6 14 10 23 10 12 0 7 -6 -13 -20 -16 -11
-36 -18 -43 -15 -9 3 -11 -1 -7 -15 5 -16 2 -20 -17 -21 -13 0 -17 -3 -11 -6
8 -3 2 -14 -18 -30 -16 -14 -27 -28 -24 -31 3 -3 27 15 53 40 26 25 54 49 63
54 15 8 57 45 244 214 27 25 102 91 165 145 63 55 158 138 210 185 52 47 133
119 180 159 47 41 108 95 135 120 28 26 91 82 140 126 50 44 162 145 249 225
88 80 216 196 285 258 69 63 137 124 151 136 14 13 69 62 122 109 53 47 107
94 119 106 27 25 47 28 28 5 -8 -9 -79 -73 -159 -142 -80 -69 -199 -176 -265
-237 -246 -225 -752 -682 -830 -750 -45 -38 -263 -232 -485 -430 -221 -198
-443 -396 -494 -440 -50 -43 -154 -136 -232 -205 -77 -69 -172 -152 -210 -186
-156 -137 -336 -294 -429 -374 -55 -47 -127 -110 -160 -140 -143 -129 -311
-276 -335 -294 -49 -35 288 285 435 414 78 68 118 110 106 110 -5 0 -32 -24
-61 -52 -28 -29 -48 -45 -45 -35 4 9 3 17 -3 17 -5 0 -12 -6 -15 -14 -3 -8
-16 -16 -29 -18 -13 -2 -22 -9 -21 -16 2 -6 -2 -12 -7 -12 -15 0 -12 16 5 34
18 18 19 36 2 36 -16 0 -44 -33 -40 -47 2 -6 -4 -13 -13 -17 -19 -7 -33 2 -19
12 6 4 16 18 23 31 12 20 12 25 0 32 -20 13 -34 11 -49 -7 -7 -8 -21 -13 -31
-11 -10 3 -18 1 -18 -4 0 -5 -4 -9 -9 -9 -10 0 -21 63 -12 70 3 3 7 19 9 36 3
29 0 32 -30 36 -18 3 -43 1 -56 -5 -18 -8 -25 -7 -36 9 -8 10 -12 23 -9 28 4
5 12 1 20 -9 9 -14 16 -16 24 -8 8 8 2 15 -21 26 -30 15 -33 15 -53 -3 -25
-24 -39 -26 -31 -5 5 11 2 13 -10 9 -14 -5 -16 -2 -10 22 l6 29 -17 -23 c-9
-12 -21 -20 -26 -16 -6 3 -13 -3 -16 -15 -8 -30 -23 -26 -23 7 0 20 -3 23 -9
13 -5 -8 -18 -16 -28 -17 -9 -2 -19 -7 -21 -12 -2 -6 -12 -8 -23 -5 -15 4 -18
2 -13 -13 3 -11 2 -15 -3 -9 -14 17 -47 40 -40 28 4 -6 3 -14 -3 -18 -5 -3
-10 -2 -10 2 0 5 -11 10 -25 11 -16 1 -25 -3 -25 -13 0 -8 -4 -15 -9 -15 -5 0
-8 -7 -7 -16 0 -9 -5 -19 -11 -21 -7 -3 -13 2 -13 11 0 9 -2 16 -5 16 -9 0
-43 -38 -39 -43 3 -2 -2 -7 -10 -10 -19 -8 -33 12 -16 23 6 4 12 11 12 16 0 5
4 8 9 6 5 -1 12 5 15 13 3 8 10 12 15 9 5 -3 9 -1 9 4 0 5 15 15 33 23 17 7
34 16 37 19 3 3 21 14 40 24 19 9 53 28 75 42 22 13 46 22 53 19 6 -2 12 1 12
8 0 7 29 33 65 56 36 24 68 48 72 54 3 5 2 8 -3 5 -5 -3 -103 -60 -218 -127
-235 -135 -271 -165 -631 -525 -99 -98 -229 -224 -290 -280 -60 -55 -184 -170
-275 -256 -91 -86 -248 -235 -350 -331 -101 -96 -259 -246 -350 -334 -91 -87
-203 -195 -250 -239 -182 -173 -519 -515 -575 -585 -97 -121 -256 -325 -265
-341 -6 -11 -12 -12 -20 -4 -11 11 10 44 154 238 45 61 86 117 90 124 4 7 7
285 6 619 0 334 1 605 3 602 8 -9 17 -332 17 -642 0 -215 3 -316 10 -312 6 4
10 12 8 18 -1 7 2 38 6 69 5 42 12 58 23 58 11 0 14 6 9 25 -4 14 -2 25 4 25
5 0 10 5 10 10 0 6 9 20 20 32 11 12 20 16 20 10 0 -7 5 -12 10 -12 6 0 10 9
10 20 0 11 4 20 9 20 5 0 11 10 15 23 5 18 8 20 16 7 9 -13 10 -13 11 0 1 8 1
21 0 28 -2 9 4 12 18 7 10 -3 22 -1 26 5 3 5 1 10 -5 10 -6 0 -8 5 -5 11 4 5
12 8 18 6 19 -6 45 24 39 47 -4 17 -2 19 9 9 20 -19 32 -16 26 8 -4 15 -1 19
11 17 18 -4 52 20 52 37 0 5 21 25 47 43 28 19 40 32 30 32 -9 0 -17 4 -17 10
0 5 7 7 15 4 8 -4 15 -2 15 2 0 5 13 15 30 22 17 8 30 20 30 27 0 7 14 18 30
24 17 5 30 15 30 21 0 6 8 10 17 8 12 -2 18 3 17 14 -1 11 4 14 14 11 10 -4
13 -2 8 5 -3 6 4 18 16 26 18 13 19 16 5 16 -9 0 -17 5 -17 10 0 6 13 8 30 5
22 -4 30 -1 30 10 0 8 5 15 12 15 6 0 8 3 5 6 -4 4 -14 1 -22 -6 -11 -9 -19
-10 -27 -2 -7 7 3 12 36 17 45 7 61 26 34 39 -7 4 -3 4 10 2 16 -3 22 1 22 15
0 12 7 19 20 19 11 0 20 4 20 10 0 5 11 12 25 16 16 4 25 13 25 25 0 17 10 23
26 17 3 -2 12 8 21 22 8 14 12 17 9 8 -3 -10 -1 -20 4 -23 5 -3 12 5 16 19 3
14 12 30 20 37 8 6 11 16 8 21 -3 5 0 8 7 7 19 -4 59 23 59 39 0 7 5 10 10 7
6 -3 10 -2 10 3 0 5 10 12 22 15 18 5 19 8 8 22 -17 21 -6 30 13 10 12 -11 18
-12 23 -3 4 6 2 14 -4 16 -7 2 -12 8 -12 13 0 6 5 7 10 4 15 -10 71 18 66 32
-8 19 23 45 45 38 11 -4 25 1 35 14 10 11 21 18 26 15 12 -8 10 20 -4 34 -9 9
-6 14 13 21 13 5 20 10 14 11 -18 1 20 20 41 20 15 0 20 6 20 22 -1 17 7 24
37 33 21 6 35 14 31 18 -4 4 3 7 15 7 18 0 20 3 11 19 -14 27 -13 34 5 27 8
-3 15 -1 15 4 0 6 11 10 25 10 14 0 24 4 23 9 -2 4 15 26 37 48 42 42 45 47
84 101 14 20 29 31 37 28 8 -3 14 -2 14 3 0 14 37 51 51 51 23 1 49 26 49 46
0 28 28 64 50 64 13 0 17 5 14 14 -3 8 4 19 16 26 20 11 21 10 15 -11 -7 -21
-6 -22 9 -7 9 9 16 21 16 27 0 6 7 11 15 11 8 0 24 9 34 19 11 11 28 17 39 14
13 -3 27 6 45 27 15 17 27 35 27 39 0 4 18 17 40 30 22 12 38 26 35 31 -3 4 3
7 13 6 10 0 16 6 16 17 -1 9 3 17 8 17 6 0 27 17 47 38 20 20 53 46 73 57 24
12 33 22 25 27 -6 4 -18 1 -27 -6 -17 -15 -51 -30 -62 -28 -5 1 -8 -3 -8 -9 0
-5 -5 -7 -10 -4 -15 9 7 35 24 29 7 -3 18 7 25 22 8 19 17 25 31 21 11 -3 20
-1 20 4 0 5 7 9 15 9 8 0 15 -4 15 -10 0 -5 -6 -10 -12 -10 -9 0 -8 -3 2 -10
17 -11 50 14 51 39 0 10 2 12 6 4 6 -15 33 -17 33 -3 0 6 7 10 16 10 10 0 14
-6 11 -14 -4 -10 -1 -13 9 -9 15 6 19 23 5 23 -5 0 -12 7 -15 16 -4 12 -2 15
9 10 8 -3 15 -1 15 4 0 5 7 7 15 4 8 -4 15 -2 15 3 0 5 15 14 34 21 18 7 41
21 50 31 17 19 17 19 -6 15 -23 -4 -22 -4 2 8 34 17 47 31 43 44 -2 7 23 14
66 18 60 5 141 33 161 55 3 4 11 7 19 9 28 6 110 77 111 96 0 16 2 17 16 5 14
-11 18 -11 29 4 7 9 17 17 24 17 16 0 82 43 105 69 11 11 25 21 33 21 8 0 11
5 8 10 -3 6 0 10 8 10 7 0 22 8 33 18 10 10 37 31 59 47 50 38 101 83 133 118
24 25 50 38 38 18 -4 -5 3 -7 14 -4 11 3 20 12 20 19 0 8 7 14 15 14 8 0 15 6
15 13 0 7 15 21 34 30 19 9 37 25 41 36 7 22 25 29 25 10 0 -5 5 -7 10 -4 6 4
7 11 4 17 -5 8 -1 9 10 5 14 -5 17 -3 12 8 -3 8 -2 14 2 14 21 -3 32 3 32 18
0 9 21 37 48 63 26 25 65 68 87 94 45 54 101 113 113 118 4 2 29 31 55 66 44
57 85 84 71 47 -4 -10 0 -15 12 -15 16 0 17 -2 4 -10 -8 -5 -23 -10 -34 -10
-17 0 -95 -75 -96 -92 -1 -18 23 -5 55 31 19 21 48 41 64 44 18 4 32 14 36 27
3 11 12 20 18 20 7 1 1 7 -13 15 l-25 14 28 1 c15 0 27 4 27 9 0 5 9 11 19 14
14 3 18 1 14 -9 -3 -8 -10 -14 -16 -14 -6 0 -7 -3 -4 -7 4 -3 3 -11 -1 -17 -4
-7 5 2 20 19 22 24 25 32 14 40 -20 15 21 43 58 39 20 -2 29 2 33 14 2 10 17
26 34 37 16 11 29 23 29 28 0 4 6 7 13 7 8 0 24 12 38 27 24 27 15 24 -32 -8
-14 -10 -29 -16 -32 -13 -3 3 -10 -3 -16 -14 -9 -16 -61 -38 -61 -25 0 12 75
73 78 64 2 -6 8 -11 14 -11 5 0 8 5 6 12 -7 21 136 135 147 117 4 -6 5 -11 4
-13 -2 -1 -17 -10 -32 -19 -15 -10 -25 -22 -22 -27 4 -6 1 -10 -4 -10 -6 0
-11 -4 -11 -10 0 -5 4 -10 10 -10 12 0 132 101 240 204 99 93 239 220 290 262
123 102 524 465 595 540 22 23 67 65 100 94 78 68 339 316 424 401 104 105
121 126 121 148 0 18 3 20 19 11 17 -8 33 3 113 81 51 50 167 161 258 247 163
154 261 254 355 362 95 108 131 137 164 132 44 -6 139 54 281 178 111 97 130
110 130 91z m-85 -10 c3 -5 1 -12 -4 -15 -5 -3 -11 1 -15 9 -6 16 9 21 19 6z
m-631 -126 c-16 -24 -15 -25 5 -25 12 0 20 -4 17 -8 -6 -10 -73 -8 -83 2 -9 8
29 43 53 49 10 2 20 5 22 6 1 0 -5 -10 -14 -24z m81 15 c3 -5 1 -10 -4 -10 -6
0 -11 5 -11 10 0 6 2 10 4 10 3 0 8 -4 11 -10z m255 -80 c8 -5 11 -12 8 -16
-10 -9 -38 3 -38 16 0 12 10 13 30 0z m-572 -29 c-13 -17 -27 -30 -32 -30 -6
-1 3 13 19 29 37 38 43 39 13 1z m-188 -1 c0 -5 -7 -10 -15 -10 -9 0 -18 -7
-21 -15 -3 -8 -15 -17 -26 -21 -11 -3 -51 -33 -89 -65 -38 -33 -69 -58 -69
-55 0 13 62 70 130 120 78 57 90 63 90 46z m295 -29 c-3 -6 -11 -11 -17 -11
-6 0 -6 6 2 15 14 17 26 13 15 -4z m175 4 c-7 -9 -15 -13 -17 -11 -7 7 7 26
19 26 6 0 6 -6 -2 -15z m-235 -44 c3 -6 -3 -14 -12 -20 -23 -13 -9 -39 31 -61
27 -14 28 -14 57 19 16 19 32 32 35 28 9 -8 -38 -81 -85 -131 -77 -83 -142
-146 -151 -146 -6 0 -10 -7 -10 -15 0 -8 -4 -15 -8 -15 -4 0 -35 -26 -68 -58
-33 -33 -91 -85 -130 -118 -79 -67 -453 -409 -471 -432 -7 -9 -53 -57 -103
-109 -49 -51 -90 -98 -90 -104 0 -6 -13 -22 -30 -36 -41 -34 -38 -45 8 -22
l37 19 6 -22 c3 -13 2 -24 -1 -26 -4 -1 -5 -13 -3 -25 6 -37 -32 -70 -87 -77
-47 -6 -48 -6 -37 17 8 19 7 27 -6 40 -15 15 -17 15 -34 -6 -10 -12 -39 -38
-65 -59 -26 -20 -87 -73 -136 -117 -48 -44 -101 -90 -117 -102 -204 -149 -341
-259 -449 -360 -220 -206 -584 -507 -652 -539 -35 -17 -42 -28 -24 -39 7 -4 4
-19 -9 -40 -14 -24 -16 -35 -8 -38 19 -6 -36 -78 -142 -183 -152 -151 -193
-188 -241 -220 -25 -16 -78 -56 -118 -89 -40 -33 -90 -73 -110 -88 -20 -15
-58 -48 -83 -73 -44 -43 -126 -84 -170 -84 -22 0 -76 -53 -115 -112 -36 -56
-74 -72 -171 -73 -69 0 -86 3 -112 23 -33 24 -102 30 -157 13 -65 -19 -136
-33 -142 -27 -10 11 20 26 51 26 15 0 44 10 65 23 43 27 147 35 172 13 35 -31
137 -46 183 -28 10 4 58 47 107 96 67 67 96 89 120 92 17 2 44 13 60 24 15 11
31 20 35 20 4 0 16 11 26 24 10 13 43 38 71 54 29 16 75 53 102 82 27 28 70
67 95 87 63 50 211 195 211 207 0 14 52 66 66 66 17 0 54 62 54 91 0 12 11 39
25 59 13 19 25 44 26 55 4 42 -1 76 -11 70 -5 -3 -10 -1 -10 4 0 21 -15 11
-38 -25 -27 -42 -23 -55 7 -25 12 12 21 17 21 12 0 -6 -5 -13 -11 -17 -8 -4
-7 -9 2 -15 7 -4 10 -11 6 -16 -5 -4 -11 -3 -15 3 -5 7 -18 8 -41 2 -31 -8
-33 -12 -27 -40 7 -37 -10 -63 -102 -152 -79 -76 -116 -106 -132 -106 -6 0 -9
-4 -5 -10 6 -10 -34 -40 -62 -45 -10 -2 -20 -4 -23 -4 -3 -1 1 -5 9 -10 11 -7
9 -12 -10 -22 -22 -11 -23 -11 -10 4 19 23 5 21 -32 -5 -59 -40 -88 -71 -75
-80 9 -5 7 -8 -6 -8 -11 0 -16 -3 -13 -6 7 -8 -112 -108 -153 -129 -14 -7 -32
-21 -39 -29 -8 -9 -22 -16 -33 -16 -11 0 -37 -17 -57 -39 -39 -42 -91 -79 -91
-64 0 4 23 31 50 60 34 34 62 53 84 57 19 4 40 13 47 22 7 9 30 24 51 35 21
11 38 24 38 29 0 6 -7 7 -17 1 -32 -15 -88 -30 -105 -28 -28 5 -34 17 -7 16
13 0 56 9 94 20 63 18 76 26 131 85 34 36 64 66 68 66 11 0 87 63 82 67 -2 3
-28 -12 -58 -31 -55 -37 -152 -73 -146 -54 2 6 29 21 61 33 68 28 133 72 204
139 29 27 66 57 82 67 16 10 40 32 52 49 13 17 38 39 56 50 18 11 33 27 33 35
0 28 147 195 171 195 6 0 9 7 5 15 -3 10 1 15 13 15 9 0 28 11 41 25 13 14 30
23 38 20 18 -7 151 120 168 163 18 41 25 41 17 0 -6 -31 -6 -32 11 -16 9 10
40 33 69 52 29 19 65 48 81 65 17 17 34 31 39 31 11 0 74 51 141 113 28 26 65
55 81 64 l30 15 -25 -24 c-61 -60 -178 -166 -214 -193 -22 -16 -62 -48 -90
-70 -28 -22 -63 -48 -78 -57 -14 -10 -68 -54 -120 -99 -51 -44 -112 -92 -135
-106 -40 -23 -63 -57 -48 -71 4 -4 15 3 25 16 10 12 26 22 35 22 9 0 30 9 47
21 16 12 32 19 34 16 6 -6 -57 -50 -108 -76 -30 -15 -33 -20 -34 -65 0 -33 -6
-53 -17 -61 -9 -7 -14 -15 -10 -18 12 -12 -29 -85 -50 -91 -16 -4 -19 -8 -10
-17 18 -18 46 -6 56 26 5 17 16 38 25 48 8 9 12 17 7 17 -4 0 -2 6 4 14 7 9
10 28 6 48 -3 18 -2 38 2 43 5 6 46 38 93 70 107 74 154 113 310 251 174 155
229 210 240 239 5 14 15 25 21 25 6 0 8 -7 5 -16 -11 -30 168 129 192 170 11
18 41 43 73 59 43 23 49 24 30 7 -13 -11 -22 -22 -20 -24 4 -5 142 103 252
196 36 31 75 59 87 63 30 9 24 27 -6 19 -24 -6 -25 -5 -16 13 6 11 18 26 27
33 9 7 13 21 10 31 -5 16 -1 19 24 19 17 0 31 5 31 10 0 6 -9 10 -21 10 -32 0
-16 25 17 26 34 2 79 18 89 33 3 6 11 11 17 11 15 0 -29 -48 -63 -69 -14 -9
-40 -33 -59 -54 -25 -29 -30 -41 -21 -50 8 -8 11 -8 11 1 0 6 18 24 40 38 22
15 40 30 40 34 0 5 36 46 80 92 44 45 80 89 80 96 0 6 5 12 10 12 6 0 10 -5
10 -10 0 -6 17 8 39 31 27 30 40 54 44 84 4 22 9 48 12 57 4 11 -1 20 -15 28
-41 22 -76 -42 -50 -91 16 -29 -1 -22 -39 16 -33 34 -33 34 -15 58 11 13 44
45 74 72 30 26 62 55 71 64 9 9 39 36 68 61 29 25 71 64 93 87 22 23 56 52 74
65 19 13 34 28 34 33 0 11 26 38 230 236 139 135 197 185 205 177 2 -2 -61
-71 -140 -152 -80 -82 -145 -152 -145 -157 0 -5 9 -9 19 -9 11 0 23 -4 26 -10
10 -16 -35 -12 -51 5 -17 17 -41 10 -55 -16 -7 -15 -6 -19 6 -19 8 0 15 -5 15
-11 0 -6 -6 -9 -13 -6 -17 6 -267 -233 -267 -256 0 -11 -5 -14 -16 -10 -22 8
-96 -65 -88 -89 3 -10 0 -18 -6 -18 -7 0 -2 -15 11 -37 l23 -36 -27 -21 c-15
-12 -27 -25 -27 -29 0 -22 35 6 145 116 131 130 267 256 321 297 18 14 33 28
34 32 0 4 -16 12 -35 19 -37 14 -46 33 -19 43 19 7 34 -1 34 -18 0 -8 7 -19
16 -26 13 -11 19 -10 37 8 21 21 21 22 2 36 -25 18 -11 34 16 18 17 -11 25 -9
49 8 16 12 35 29 42 38 7 10 37 37 66 61 28 24 52 52 52 61 0 10 6 17 14 16
19 -2 216 184 216 205 0 21 -24 31 -39 16 -6 -6 -11 -7 -11 -1 0 6 6 16 12 22
10 10 8 14 -10 18 -26 8 -29 39 -5 66 18 20 29 23 38 9z m-65 -35 c0 -3 -4 -8
-10 -11 -5 -3 -10 -1 -10 4 0 6 5 11 10 11 6 0 10 -2 10 -4z m-306 -31 c-4 -8
-10 -12 -15 -9 -14 8 -10 24 6 24 9 0 12 -6 9 -15z m300 -50 c-4 -17 -2 -25 6
-25 10 0 10 -3 0 -14 -6 -8 -18 -12 -26 -9 -9 3 -14 -2 -14 -14 0 -28 -20 -45
-37 -32 -20 17 -16 28 10 22 20 -4 21 -3 5 10 -22 17 -23 27 -3 27 18 0 20 21
3 39 -11 11 -9 12 9 7 12 -4 24 -2 28 4 12 20 25 10 19 -15z m-394 6 c0 -12
-20 -25 -27 -18 -7 7 6 27 18 27 5 0 9 -4 9 -9z m904 -6 c-4 -8 -10 -15 -15
-15 -4 0 -6 7 -3 15 4 8 10 15 15 15 4 0 6 -7 3 -15z m-864 -14 c0 -5 -7 -11
-15 -15 -9 -3 -15 0 -15 9 0 8 7 15 15 15 8 0 15 -4 15 -9z m-94 -36 c-3 -8
-9 -22 -12 -30 -4 -9 -1 -15 7 -15 10 0 10 -3 1 -12 -9 -9 -15 -9 -24 0 -7 7
-9 12 -5 12 4 0 3 10 -4 21 -9 17 -8 23 2 30 22 14 42 11 35 -6z m334 -96
c-47 -12 -58 -10 -62 16 -6 27 1 32 20 13 6 -6 15 -9 19 -5 4 4 1 13 -5 19 -7
7 -12 17 -12 22 0 6 15 -5 33 -24 l32 -35 -25 -6z m-446 -7 c-40 -40 -78 -62
-68 -39 8 17 95 89 101 83 3 -3 -12 -22 -33 -44z m69 -12 c4 -18 2 -20 -16
-14 -28 8 -30 11 -22 23 10 18 32 12 38 -9z m308 -10 c23 -13 25 -46 3 -54
-24 -9 -74 -7 -74 3 0 12 37 24 49 16 5 -3 12 -1 16 5 3 6 -1 13 -9 16 -9 3
-16 10 -16 15 0 12 7 11 31 -1z m-361 -20 c0 -5 -2 -10 -4 -10 -3 0 -8 5 -11
10 -3 6 -1 10 4 10 6 0 11 -4 11 -10z m-106 -44 c-3 -8 -16 -22 -30 -30 -14
-10 -21 -22 -18 -31 4 -10 0 -15 -11 -15 -9 0 -25 -10 -35 -22 -27 -33 -34
-16 -13 28 12 24 25 38 35 38 10 -1 16 3 15 9 -1 6 3 11 10 12 7 0 18 6 25 13
16 16 29 15 22 -2z m1767 -53 c-5 -10 -31 -38 -57 -63 l-48 -45 55 62 c57 66
66 74 50 46z m-1944 -10 c-9 -9 -19 -14 -23 -11 -10 10 6 28 24 28 15 0 15 -1
-1 -17z m541 -9 c30 -21 17 -38 -14 -18 -23 16 -32 34 -16 34 4 0 18 -7 30
-16z m-28 -49 c21 -25 -2 -40 -25 -15 -10 11 -24 20 -32 20 -7 0 -13 9 -13 20
0 19 2 20 28 6 16 -8 34 -22 42 -31z m-580 9 c0 -8 -5 -12 -10 -9 -6 4 -8 11
-5 16 9 14 15 11 15 -7z m340 6 c0 -5 -6 -10 -13 -10 -8 0 -24 -12 -38 -26
-13 -14 -37 -33 -53 -41 l-28 -15 18 26 c11 14 26 28 35 31 9 3 24 14 34 25
19 21 45 27 45 10z m-570 -3 c0 -2 -12 -14 -27 -28 -20 -18 -24 -19 -13 -4 18
24 40 42 40 32z m902 -71 c-16 -19 -67 -67 -113 -107 -46 -40 -113 -101 -149
-135 -103 -97 -150 -137 -150 -127 0 12 94 100 280 263 47 41 100 89 118 107
43 43 52 42 14 -1z m-582 14 c0 -5 -4 -10 -10 -10 -5 0 -10 5 -10 10 0 6 5 10
10 10 6 0 10 -4 10 -10z m80 0 c0 -5 -9 -10 -20 -10 -11 0 -20 5 -20 10 0 6 9
10 20 10 11 0 20 -4 20 -10z m-85 -22 c29 -13 28 -35 -1 -30 -36 6 -44 11 -38
27 7 18 7 18 39 3z m1768 -18 c-18 -17 -36 -30 -40 -30 -8 1 58 59 67 60 3 0
-9 -14 -27 -30z m-895 -5 c-1 -14 -8 -25 -15 -25 -7 0 -13 -5 -13 -11 0 -5 -5
-7 -10 -4 -6 4 -2 18 10 36 26 35 30 36 28 4z m32 5 c0 -5 -5 -10 -11 -10 -5
0 -7 5 -4 10 3 6 8 10 11 10 2 0 4 -4 4 -10z m-1040 -20 c0 -5 -4 -10 -10 -10
-5 0 -10 5 -10 10 0 6 5 10 10 10 6 0 10 -4 10 -10z m449 -4 c8 -10 9 -16 1
-21 -13 -8 -30 3 -30 21 0 18 14 18 29 0z m-241 -19 c-13 -13 -54 -50 -93 -83
-38 -32 -72 -61 -75 -64 -3 -3 -23 -11 -45 -17 l-40 -12 25 21 c14 11 48 33
75 49 28 16 75 51 105 78 56 51 90 70 48 28z m168 -25 c-22 -22 -29 -10 -8 16
9 12 19 16 21 11 2 -6 -4 -18 -13 -27z m-373 -11 c-14 -7 -53 -41 -87 -75 -58
-58 -196 -186 -351 -326 -38 -34 -124 -107 -190 -161 -67 -53 -148 -128 -181
-166 -60 -69 -114 -145 -114 -161 0 -21 -445 -457 -565 -554 -39 -31 -114 -97
-168 -147 -95 -88 -107 -95 -135 -92 -7 1 -26 -9 -41 -22 -16 -13 -43 -29 -60
-37 -18 -7 -64 -45 -103 -83 -70 -70 -92 -86 -176 -127 -38 -19 -43 -25 -38
-45 7 -29 -31 -103 -83 -160 -47 -52 -61 -78 -55 -102 7 -24 -45 -91 -56 -73
-5 8 -9 4 -13 -9 -3 -12 -10 -21 -16 -21 -9 0 -9 6 0 21 8 15 8 23 0 28 -6 4
1 16 19 31 17 14 30 31 30 38 0 17 44 86 90 142 39 46 64 130 40 130 -7 0 -9
8 -5 20 5 16 2 20 -14 20 -24 0 -97 -62 -106 -90 -6 -18 -34 -35 -43 -25 -7 7
64 91 99 116 16 11 53 30 82 40 60 22 57 21 57 11 0 -4 -15 -12 -32 -17 -30
-9 -49 -43 -22 -38 6 1 24 4 38 7 51 9 114 54 121 85 3 17 15 41 26 55 26 34
123 86 158 86 50 0 102 37 316 224 28 24 74 65 104 90 92 77 393 367 453 436
31 36 75 91 96 123 66 98 176 206 443 432 87 74 128 112 314 286 101 95 178
151 187 136 4 -7 -3 -17 -19 -26z m1836 22 c-8 -9 -90 -82 -184 -162 -93 -80
-225 -193 -291 -251 -248 -215 -448 -385 -468 -399 -36 -23 115 117 194 180
90 73 309 261 400 344 87 79 147 132 200 175 24 19 69 56 99 82 60 50 72 58
50 31z m-884 -3 c-3 -5 -11 -10 -16 -10 -6 0 -7 5 -4 10 3 6 11 10 16 10 6 0
7 -4 4 -10z m-1310 -10 c-3 -5 -11 -10 -16 -10 -6 0 -7 5 -4 10 3 6 11 10 16
10 6 0 7 -4 4 -10z m765 0 c0 -5 -5 -10 -11 -10 -5 0 -7 5 -4 10 3 6 8 10 11
10 2 0 4 -4 4 -10z m-6339 -32 l22 -33 -27 27 c-24 25 -32 38 -22 38 3 0 15
-15 27 -32z m6849 -3 c-7 -9 -15 -13 -18 -10 -3 2 1 11 8 20 7 9 15 13 18 10
3 -2 -1 -11 -8 -20z m-540 -14 c0 -5 -9 -11 -20 -14 -17 -4 -19 -11 -14 -31 8
-33 -6 -33 -36 -1 l-23 25 27 0 c14 0 29 7 32 15 7 16 34 21 34 6z m-780 -5
c0 -2 -8 -10 -17 -17 -16 -13 -17 -12 -4 4 13 16 21 21 21 13z m1025 -40 c-9
-14 -27 -32 -41 -41 -21 -14 -24 -14 -24 0 0 8 5 15 11 15 6 0 20 11 31 25 25
32 43 33 23 1z m-315 -35 c0 -5 -8 -12 -17 -15 -10 -3 -45 -31 -77 -61 -47
-43 -65 -53 -83 -49 -21 6 -22 4 -17 -25 5 -23 3 -31 -8 -31 -11 0 -14 10 -13
37 2 31 7 39 31 46 16 5 36 16 45 23 8 8 21 14 27 14 6 0 27 16 48 35 35 34
64 45 64 26z m240 -31 c0 -5 -6 -10 -14 -10 -7 0 -19 -7 -26 -15 -7 -9 -15
-13 -18 -10 -5 5 38 44 51 45 4 0 7 -4 7 -10z m-1080 -3 c0 -1 -44 -45 -97
-97 l-98 -95 95 98 c88 90 100 102 100 94z m1279 -28 c-25 -16 -32 -9 -13 12
12 13 20 16 22 9 3 -7 -2 -16 -9 -21z m-309 -59 c0 -5 -5 -10 -11 -10 -5 0 -7
5 -4 10 3 6 8 10 11 10 2 0 4 -4 4 -10z m223 -26 c-27 -20 -39 -17 -18 6 10
11 22 17 27 14 5 -3 1 -12 -9 -20z m-768 -10 c-86 -72 -118 -81 -43 -12 23 21
48 38 57 38 11 -1 7 -9 -14 -26z m505 -17 c0 -26 -34 -67 -55 -67 -26 0 -16
18 16 29 23 8 30 15 25 27 -6 15 0 34 10 34 2 0 4 -10 4 -23z m205 -17 c-10
-11 -21 -17 -24 -14 -3 3 3 12 13 20 28 20 32 17 11 -6z m-360 -40 c-10 -11
-21 -17 -24 -14 -3 3 3 12 13 20 28 20 32 17 11 -6z m312 -20 c-5 -31 -17 -36
-17 -7 0 15 4 27 10 27 5 0 9 -9 7 -20z m-368 -27 c-38 -44 -140 -143 -147
-143 -3 0 32 38 78 85 84 84 116 110 69 58z m131 17 c0 -5 -4 -10 -10 -10 -5
0 -10 5 -10 10 0 6 5 10 10 10 6 0 10 -4 10 -10z m-428 -42 c15 -23 25 -45 22
-47 -9 -9 -77 67 -70 78 12 18 20 13 48 -31z m626 14 c-10 -2 -18 -9 -18 -17
0 -7 -7 -15 -15 -19 -8 -3 -15 -1 -15 5 0 16 43 48 55 41 5 -4 2 -8 -7 -10z
m-778 4 c0 -3 -4 -8 -10 -11 -5 -3 -10 -1 -10 4 0 6 5 11 10 11 6 0 10 -2 10
-4z m580 -21 c-13 -14 -28 -25 -34 -25 -6 0 3 11 19 25 39 31 45 32 15 0z
m-1130 11 c0 -3 -4 -8 -10 -11 -5 -3 -10 -1 -10 4 0 6 5 11 10 11 6 0 10 -2
10 -4z m-30 -20 c0 -7 -72 -47 -77 -42 -3 2 12 14 34 25 42 22 43 23 43 17z
m475 -15 c-3 -6 -14 -11 -23 -11 -15 1 -15 2 2 15 21 16 32 13 21 -4z m825 -6
c0 -2 -12 -16 -27 -30 -27 -25 -28 -26 -9 -40 11 -8 15 -15 10 -15 -6 0 -16 6
-23 13 -10 10 -16 8 -30 -9 -9 -12 -27 -26 -39 -33 -12 -6 -21 -15 -21 -19 4
-22 -3 -33 -18 -30 -11 2 -22 -6 -28 -19 -9 -21 -35 -32 -35 -16 0 10 202 202
213 203 4 0 7 -2 7 -5z m-628 -47 c10 -23 15 -44 12 -47 -4 -3 -9 0 -12 8 -2
7 -13 22 -24 33 -11 11 -17 26 -14 34 9 24 20 16 38 -28z m138 32 c0 -5 -2
-10 -4 -10 -3 0 -8 5 -11 10 -3 6 -1 10 4 10 6 0 11 -4 11 -10z m230 1 c0 -5
-7 -12 -16 -15 -14 -5 -15 -4 -4 9 14 17 20 19 20 6z m-480 -44 c0 -22 55 -56
81 -51 23 5 23 5 5 -10 -11 -9 -39 -16 -63 -16 l-43 0 0 45 c0 25 5 45 10 45
6 0 10 -6 10 -13z m419 -20 c-27 -26 -79 -61 -84 -55 -5 5 99 87 104 83 1 -2
-8 -14 -20 -28z m-535 -9 c19 -43 1 -84 -46 -109 -27 -14 -22 -3 14 30 31 29
31 30 14 55 -17 26 -36 27 -36 1 0 -18 -49 -69 -87 -88 -17 -9 -34 -26 -38
-37 -3 -11 -13 -20 -21 -20 -16 0 -19 16 -4 25 6 4 10 12 9 18 -1 7 -1 19 1
27 1 11 4 10 9 -4 7 -18 9 -17 26 12 11 18 25 32 32 32 7 0 15 11 18 23 6 21
65 66 88 67 4 0 14 -14 21 -32z m50 11 c-3 -5 -10 -7 -15 -3 -5 3 -7 10 -3 15
3 5 10 7 15 3 5 -3 7 -10 3 -15z m236 1 c0 -5 -5 -10 -11 -10 -5 0 -7 5 -4 10
3 6 8 10 11 10 2 0 4 -4 4 -10z m-986 -95 c-1 -48 -7 -73 -34 -125 -36 -72
-159 -229 -224 -286 -22 -21 -82 -76 -131 -123 -108 -102 -346 -289 -505 -397
-226 -152 -326 -230 -530 -414 -120 -108 -130 -115 -130 -101 0 49 354 347
665 560 154 105 381 284 475 375 47 45 107 99 133 120 62 50 177 196 216 274
26 51 31 73 31 130 0 38 3 72 7 76 14 13 27 -30 27 -89z m547 67 c-22 -40
-167 -194 -256 -269 -42 -37 -45 -38 -45 -21 0 9 298 307 308 308 1 0 -2 -8
-7 -18z m197 -27 c-3 -3 -9 2 -12 12 -6 14 -5 15 5 6 7 -7 10 -15 7 -18z m497
-25 c-3 -5 -11 -10 -16 -10 -6 0 -7 5 -4 10 3 6 11 10 16 10 6 0 7 -4 4 -10z
m-495 -71 c0 -5 -4 -9 -10 -9 -5 0 -10 7 -10 16 0 8 5 12 10 9 6 -3 10 -10 10
-16z m407 -13 c-8 -19 -37 -21 -37 -3 0 7 5 18 12 25 15 15 33 -1 25 -22z
m-537 14 c0 -5 -5 -10 -11 -10 -5 0 -7 5 -4 10 3 6 8 10 11 10 2 0 4 -4 4 -10z
m685 -10 c-13 -14 -14 -20 -5 -20 9 0 7 -5 -6 -15 -17 -13 -17 -14 -2 -15 10
0 16 -7 15 -19 0 -11 -5 -17 -9 -15 -5 3 -6 9 -3 14 3 4 -2 11 -11 14 -13 5
-14 9 -4 21 8 10 9 15 2 15 -6 0 -16 -9 -22 -20 -8 -16 -8 -22 4 -26 23 -9 7
-36 -20 -31 -15 2 -21 0 -17 -9 2 -7 -4 -15 -15 -18 -10 -4 -25 -18 -32 -31
-8 -16 -22 -25 -37 -25 -13 0 -23 -5 -23 -11 0 -5 -4 -8 -9 -5 -5 3 -11 -3
-14 -14 -3 -12 -14 -20 -25 -20 -22 0 -37 -26 -19 -33 7 -3 1 -13 -15 -26 -15
-12 -25 -28 -22 -35 3 -7 -4 -23 -14 -36 -16 -20 -17 -26 -6 -37 7 -7 19 -13
27 -13 9 0 12 -9 9 -30 -3 -21 2 -35 16 -47 19 -18 19 -18 1 -35 -15 -14 -19
-15 -19 -4 0 8 6 17 13 20 9 5 9 7 -1 12 -7 3 -19 13 -28 22 -13 12 -20 13
-34 4 -23 -14 -33 -4 -14 15 8 8 24 13 34 10 27 -7 25 10 -2 24 -13 7 -26 18
-30 25 -5 6 -17 10 -28 7 -11 -3 -27 0 -35 7 -14 11 -12 17 14 42 19 19 35 26
47 22 13 -4 15 -3 7 3 -9 6 -4 15 18 33 17 14 59 53 94 88 35 34 69 62 74 62
6 0 11 6 12 13 0 6 32 40 72 75 71 62 95 79 62 42z m42 5 c0 -8 -4 -12 -9 -9
-5 3 -6 10 -3 15 9 13 12 11 12 -6z m-762 -25 c-3 -5 -10 -10 -16 -10 -5 0 -9
5 -9 10 0 6 7 10 16 10 8 0 12 -4 9 -10z m125 -37 c0 -7 -9 -13 -20 -13 -13 0
-20 -7 -20 -19 0 -11 -4 -22 -9 -26 -6 -3 -6 7 0 27 13 46 11 58 -7 58 -8 0
-12 5 -9 10 8 13 65 -19 65 -37z m-90 17 c0 -5 -2 -10 -4 -10 -3 0 -8 5 -11
10 -3 6 -1 10 4 10 6 0 11 -4 11 -10z m411 -21 c-43 -43 -41 -69 3 -31 18 15
18 14 -3 -15 -27 -39 -48 -55 -37 -28 4 10 2 21 -4 25 -8 5 -7 12 4 23 9 8 16
18 16 22 0 11 25 34 38 35 8 0 0 -14 -17 -31z m-51 11 c0 -5 -5 -10 -11 -10
-5 0 -7 5 -4 10 3 6 8 10 11 10 2 0 4 -4 4 -10z m-560 -35 c-7 -8 -17 -12 -22
-9 -6 4 -5 10 3 15 22 14 33 10 19 -6z m-350 -24 c0 -5 -7 -12 -16 -15 -14 -5
-15 -4 -4 9 14 17 20 19 20 6z m390 5 c0 -7 -90 -66 -99 -66 -5 0 -25 -18 -44
-40 -20 -21 -54 -48 -77 -60 -22 -11 -40 -24 -40 -28 0 -5 -43 -46 -96 -93
-53 -46 -131 -115 -173 -154 -131 -120 -185 -166 -206 -177 -19 -11 -88 -71
-131 -115 -12 -13 -25 -23 -30 -23 -5 -1 -27 -16 -49 -35 -31 -27 -37 -37 -26
-44 9 -6 10 -11 2 -15 -6 -4 -11 -2 -11 3 0 6 -4 11 -10 11 -15 0 -72 -59 -75
-78 -1 -11 -11 -17 -28 -17 -14 0 -34 -8 -44 -17 -11 -11 -13 -18 -5 -18 7 0
12 -5 12 -11 0 -8 -5 -8 -15 1 -28 24 -11 70 26 70 9 0 54 34 100 75 46 41 89
75 94 75 6 0 16 9 22 19 7 10 59 56 116 102 57 46 157 134 222 194 243 227
352 325 364 325 3 1 22 14 41 30 19 17 40 30 47 30 7 0 34 13 61 30 50 31 52
32 52 26z m85 -15 c-3 -6 -11 -11 -17 -11 -6 0 -6 6 2 15 14 17 26 13 15 -4z
m63 2 c-8 -10 -18 -26 -21 -35 -7 -19 -22 -24 -31 -9 -10 15 5 42 28 51 33 14
40 11 24 -7z m-263 -23 c-3 -5 -11 -10 -16 -10 -6 0 -7 5 -4 10 3 6 11 10 16
10 6 0 7 -4 4 -10z m295 0 c0 -13 -51 -70 -62 -70 -5 0 -2 7 7 17 9 9 21 27
26 40 8 23 29 32 29 13z m340 -14 c0 -3 -4 -8 -10 -11 -5 -3 -10 -1 -10 4 0 6
5 11 10 11 6 0 10 -2 10 -4z m-42 -47 c-7 -4 -29 -21 -48 -38 -60 -52 -67 -34
-10 23 45 43 57 51 64 38 6 -10 4 -17 -6 -23z m-43 21 c3 -5 1 -10 -4 -10 -6
0 -11 5 -11 10 0 6 2 10 4 10 3 0 8 -4 11 -10z m-415 -10 c0 -5 -9 -10 -21
-10 -11 0 -17 5 -14 10 3 6 13 10 21 10 8 0 14 -4 14 -10z m371 -31 c-13 -10
-28 -19 -35 -19 -6 1 2 12 19 25 16 13 32 22 35 19 3 -3 -6 -14 -19 -25z
m-476 -9 c-16 -16 -31 -28 -33 -25 -7 7 39 55 52 55 5 0 -3 -13 -19 -30z m399
-58 c-16 -16 -76 -70 -134 -121 -58 -50 -131 -115 -162 -143 -31 -27 -92 -76
-135 -108 -103 -77 -227 -186 -324 -285 -43 -44 -81 -76 -85 -72 -12 12 242
251 366 345 90 68 234 186 270 222 3 3 37 32 75 65 82 70 123 106 139 121 6 7
13 10 15 8 3 -2 -9 -17 -25 -32z m-461 3 c4 -8 1 -17 -5 -21 -7 -4 -8 -3 -4 4
4 7 2 12 -3 12 -6 0 -11 5 -11 10 0 15 17 12 23 -5z m467 -60 c-38 -38 -73
-64 -85 -64 -19 0 -18 1 3 11 12 6 46 35 75 65 30 29 58 53 63 53 5 0 -21 -29
-56 -65z m-405 35 c-3 -5 -13 -10 -21 -10 -8 0 -12 5 -9 10 3 6 13 10 21 10 8
0 12 -4 9 -10z m-75 -38 c0 -4 -13 -13 -28 -20 -37 -16 -92 -70 -92 -91 0 -13
-2 -13 -9 -2 -7 11 -13 11 -32 1 l-24 -13 20 23 c30 33 135 110 151 110 8 0
14 -3 14 -8z m0 -57 c0 -9 -10 -19 -23 -24 -26 -10 -48 -33 -51 -54 -1 -8 -20
-29 -41 -48 l-40 -34 33 38 c17 21 32 42 32 47 0 13 70 90 81 90 5 0 9 -7 9
-15z m787 -11 c-3 -3 -12 -4 -19 -1 -8 3 -5 6 6 6 11 1 17 -2 13 -5z m-433
-35 c-26 -30 -130 -109 -143 -109 -5 0 -11 -8 -13 -17 -2 -13 -6 -14 -11 -6
-5 8 24 36 85 82 102 76 111 81 82 50z m286 5 c0 -7 -27 -34 -35 -34 -3 0 -1
9 5 20 10 18 30 28 30 14z m125 -3 c3 -5 1 -12 -4 -15 -5 -3 -11 1 -15 9 -6
16 9 21 19 6z m-185 -16 c-7 -8 -17 -15 -22 -15 -6 0 -5 7 2 15 7 8 17 15 22
15 6 0 5 -7 -2 -15z m-790 -45 c-6 -11 -16 -20 -22 -20 -6 0 -3 9 7 20 10 11
20 20 22 20 2 0 -1 -9 -7 -20z m928 2 c2 -7 -3 -12 -12 -12 -9 0 -16 7 -16 16
0 17 22 14 28 -4z m-1018 -72 c0 -5 -5 -10 -11 -10 -5 0 -7 5 -4 10 3 6 8 10
11 10 2 0 4 -4 4 -10z m100 -2 c-1 -18 -28 -53 -36 -46 -5 6 24 58 32 58 2 0
4 -6 4 -12z m380 -12 c0 -3 -4 -8 -10 -11 -5 -3 -10 -1 -10 4 0 6 5 11 10 11
6 0 10 -2 10 -4z m-48 -48 c-7 -7 -12 -8 -12 -2 0 14 12 26 19 19 2 -3 -1 -11
-7 -17z m-393 -16 c-6 -10 -21 -25 -33 -32 -15 -10 -13 -4 9 22 32 37 44 43
24 10z m336 -48 c-27 -26 -81 -75 -118 -111 -38 -35 -72 -62 -75 -59 -3 3 -10
-4 -16 -16 -6 -12 -18 -24 -26 -26 -13 -5 -13 -3 0 13 14 17 14 18 -7 6 -19
-10 -22 -9 -17 4 4 8 10 15 15 15 4 0 19 10 32 23 37 35 74 64 96 77 12 6 19
15 16 21 -4 5 -1 9 5 9 19 0 95 53 82 58 -18 6 17 31 43 31 16 0 9 -10 -30
-45z m-555 -137 c0 -2 -10 -12 -22 -23 l-23 -19 19 23 c18 21 26 27 26 19z
m-120 -112 c-13 -14 -28 -25 -33 -25 -6 0 -19 -8 -29 -17 -13 -12 -22 -13 -29
-6 -8 8 -5 13 9 17 11 4 23 13 25 21 3 7 14 11 25 9 10 -3 24 2 31 10 8 9 16
16 19 16 3 0 -5 -11 -18 -25z m420 10 c-7 -9 -15 -13 -17 -11 -7 7 7 26 19 26
6 0 6 -6 -2 -15z m-816 -6 c-6 -11 -66 -39 -81 -39 -10 0 69 49 80 50 5 0 5
-5 1 -11z m499 -34 c-29 -25 -54 -54 -58 -64 -3 -10 -26 -34 -50 -53 -25 -20
-42 -37 -39 -40 2 -3 -12 -20 -32 -37 -20 -18 -38 -30 -40 -28 -10 10 11 36
76 92 39 33 70 65 70 71 0 16 99 102 120 104 2 0 -19 -20 -47 -45z m537 -105
c0 -5 -2 -10 -4 -10 -3 0 -8 5 -11 10 -3 6 -1 10 4 10 6 0 11 -4 11 -10z
m-1113 -117 c-9 -9 -19 -14 -22 -11 -3 3 2 13 11 22 9 9 19 14 22 11 3 -3 -2
-13 -11 -22z m351 -53 c-24 -33 -44 -41 -28 -10 8 16 36 38 48 40 1 0 -7 -13
-20 -30z m-497 0 c-24 -20 -51 -27 -51 -12 0 8 45 29 65 31 6 0 -1 -9 -14 -19z
m-96 -20 c-3 -5 -11 -10 -16 -10 -6 0 -7 5 -4 10 3 6 11 10 16 10 6 0 7 -4 4
-10z m185 -15 c-7 -9 -15 -13 -17 -11 -7 7 7 26 19 26 6 0 6 -6 -2 -15z m-150
-20 c-7 -9 -15 -13 -17 -11 -7 7 7 26 19 26 6 0 6 -6 -2 -15z m57 -1 c-3 -3
-12 -4 -19 -1 -8 3 -5 6 6 6 11 1 17 -2 13 -5z m-268 -38 c-14 -14 -38 -28
-54 -32 -53 -13 -75 -31 -101 -80 -54 -103 -87 -150 -124 -176 -44 -32 -48
-33 -84 -14 -24 12 -35 11 -99 -11 -73 -25 -108 -48 -106 -67 1 -6 1 -20 0
-30 -1 -18 -2 -18 -25 3 -21 20 -28 21 -62 12 -22 -6 -52 -11 -69 -11 -16 0
-55 -14 -85 -29 -128 -68 -182 -92 -188 -87 -8 9 27 32 78 52 25 10 66 30 91
45 45 26 135 61 194 74 17 3 50 19 75 35 84 53 153 73 176 51 9 -9 37 -15 60
-12 30 3 92 82 181 229 10 16 20 21 34 17 14 -5 19 -2 19 10 0 11 5 15 15 12
8 -4 17 -1 21 4 7 13 67 39 73 33 2 -2 -7 -15 -20 -28z m181 18 c0 -2 -12 -4
-26 -4 -14 0 -23 4 -20 9 6 8 46 4 46 -5z m323 -29 c-3 -9 -8 -14 -10 -11 -3
3 -2 9 2 15 9 16 15 13 8 -4z m-243 -8 c0 -2 -10 -12 -22 -23 l-23 -19 19 23
c18 21 26 27 26 19z m-330 -66 c0 -6 -4 -13 -10 -16 -5 -3 -10 1 -10 9 0 9 5
16 10 16 6 0 10 -4 10 -9z m450 -52 c0 -6 -4 -7 -10 -4 -5 3 -10 11 -10 16 0
6 5 7 10 4 6 -3 10 -11 10 -16z m-170 -154 c-7 -9 -15 -13 -19 -10 -3 3 1 10
9 15 21 14 24 12 10 -5z m206 -23 c-18 -16 -18 -16 -6 6 6 13 14 21 18 18 3
-4 -2 -14 -12 -24z m-595 -16 c-6 -8 -22 -16 -34 -19 -22 -6 -22 -6 2 14 27
22 49 26 32 5z m9 -36 c0 -5 -8 -10 -17 -10 -15 0 -16 2 -3 10 19 12 20 12 20
0z m-53 -6 c-3 -3 -12 -4 -19 -1 -8 3 -5 6 6 6 11 1 17 -2 13 -5z m-167 -28
c0 -8 -4 -17 -9 -20 -10 -7 -23 19 -14 28 11 11 23 6 23 -8z m144 -31 c-4 -8
-9 -15 -13 -15 -4 0 -24 -16 -44 -36 -23 -23 -34 -42 -30 -52 4 -10 3 -14 -2
-10 -13 12 -35 -12 -35 -37 0 -13 -3 -25 -7 -27 -12 -5 -57 -70 -71 -100 -13
-30 -37 -35 -64 -14 -20 15 -14 26 16 26 29 0 101 95 109 145 9 55 85 132 134
134 7 1 10 -6 7 -14z m-294 -16 c0 -6 -4 -7 -10 -4 -5 3 -10 11 -10 16 0 6 5
7 10 4 6 -3 10 -11 10 -16z m1700 -31 c0 -5 -4 -8 -10 -8 -5 0 -10 10 -10 23
0 18 2 19 10 7 5 -8 10 -18 10 -22z m-3373 -13 c0 -8 -4 -15 -9 -15 -10 0 -11
14 -1 23 9 10 10 9 10 -8z m-6 -35 c5 0 9 -4 9 -10 0 -5 -6 -7 -14 -4 -18 7
-59 -14 -51 -26 3 -5 -4 -14 -15 -20 -28 -15 -25 2 6 40 16 18 33 29 41 26 8
-4 19 -6 24 -6z m134 -10 c-3 -5 -10 -10 -16 -10 -5 0 -9 5 -9 10 0 6 7 10 16
10 8 0 12 -4 9 -10z m1563 -46 c10 -7 11 -13 5 -17 -6 -4 -16 0 -23 8 -9 10
-32 15 -74 15 -33 0 -68 5 -76 10 -11 7 3 10 45 10 33 0 67 5 75 10 10 6 17 4
24 -8 5 -9 16 -22 24 -28z m-1663 26 c3 -5 1 -10 -4 -10 -6 0 -11 5 -11 10 0
6 2 10 4 10 3 0 8 -4 11 -10z m-40 -10 c3 -5 4 -10 1 -10 -2 0 -12 -3 -20 -6
-12 -5 -15 -2 -10 10 7 18 20 21 29 6z m1511 1 c-3 -5 -16 -11 -28 -14 -22 -6
-22 -5 -4 8 22 17 40 20 32 6z m-1392 -42 c-5 -8 -10 -6 -16 5 -5 9 -6 21 -2
27 5 8 10 6 16 -5 5 -9 6 -21 2 -27z m52 27 c15 -12 17 -17 7 -27 -11 -11 -13
-10 -13 0 0 8 -8 20 -17 27 -10 7 -13 14 -7 14 5 0 19 -6 30 -14z m1814 -30
c0 -2 -8 -10 -17 -17 -16 -13 -17 -12 -4 4 13 16 21 21 21 13z m-2076 -22 c3
-8 2 -12 -4 -9 -6 3 -10 10 -10 16 0 14 7 11 14 -7z m46 6 c0 -5 -7 -10 -16
-10 -8 0 -12 5 -9 10 3 6 10 10 16 10 5 0 9 -4 9 -10z m70 -14 c0 -3 -4 -8
-10 -11 -5 -3 -10 -1 -10 4 0 6 5 11 10 11 6 0 10 -2 10 -4z m240 -10 c9 -12
8 -15 -8 -13 -12 0 -18 6 -15 14 6 16 8 16 23 -1z m136 -3 c-2 -3 -17 -6 -32
-8 -25 -2 -26 -1 -10 10 16 12 54 10 42 -2z m1759 -6 c-11 -7 -35 -17 -53 -24
-47 -17 -29 5 22 27 43 18 65 17 31 -3z m-1925 -27 c0 -5 -2 -10 -4 -10 -3 0
-8 5 -11 10 -3 6 -1 10 4 10 6 0 11 -4 11 -10z m710 0 c0 -5 -5 -10 -11 -10
-5 0 -7 5 -4 10 3 6 8 10 11 10 2 0 4 -4 4 -10z m-645 -10 c3 -5 -1 -10 -9
-10 -9 0 -16 5 -16 10 0 6 4 10 9 10 6 0 13 -4 16 -10z m-66 -34 c21 -22 21
-24 4 -20 -19 5 -50 44 -35 44 5 0 19 -11 31 -24z m1029 7 c-16 -15 -16 -17 5
-28 12 -6 24 -21 25 -34 3 -21 1 -23 -20 -16 -29 9 -43 9 -92 -1 -53 -10 -45
8 24 56 58 40 86 51 58 23z m-988 -13 c0 -5 -2 -10 -4 -10 -3 0 -8 5 -11 10
-3 6 -1 10 4 10 6 0 11 -4 11 -10z m-510 -10 c0 -5 -2 -10 -4 -10 -3 0 -8 5
-11 10 -3 6 -1 10 4 10 6 0 11 -4 11 -10z m685 -30 c5 -17 4 -22 -3 -15 -5 6
-13 21 -17 35 -5 17 -4 22 3 15 5 -5 13 -21 17 -35z m-310 10 c-3 -5 -12 -7
-20 -3 -21 7 -19 13 6 13 11 0 18 -4 14 -10z m-405 -5 c0 -8 -74 -74 -84 -75
-11 0 66 79 77 80 4 0 7 -2 7 -5z m360 -15 c0 -5 -5 -10 -11 -10 -5 0 -7 5 -4
10 3 6 8 10 11 10 2 0 4 -4 4 -10z m60 -10 c-6 -11 -15 -20 -20 -20 -6 0 -2 9
7 20 10 11 19 20 21 20 1 0 -2 -9 -8 -20z m220 10 c11 -7 7 -10 -18 -10 -20 0
-31 4 -27 10 8 13 26 13 45 0z m4 -68 c3 -5 -1 -9 -9 -9 -8 0 -12 4 -9 9 3 4
7 8 9 8 2 0 6 -4 9 -8z m796 -21 c0 -24 -35 -40 -103 -46 -88 -8 -133 -2 -62
9 28 4 73 16 100 26 60 22 65 23 65 11z m610 -95 c0 -3 -4 -8 -10 -11 -5 -3
-10 -1 -10 4 0 6 5 11 10 11 6 0 10 -2 10 -4z m-1740 -26 c0 -5 -2 -10 -4 -10
-3 0 -8 5 -11 10 -3 6 -1 10 4 10 6 0 11 -4 11 -10z m1150 -53 c0 -34 -8 -53
-39 -95 -37 -49 -63 -105 -75 -163 -9 -43 -64 -108 -124 -147 -63 -41 -138
-100 -189 -149 -34 -33 -53 -41 -53 -24 0 13 130 129 218 194 69 51 122 111
122 138 0 30 27 89 72 156 31 47 48 83 48 103 0 16 5 30 10 30 6 0 10 -19 10
-43z m510 28 c0 -1 -15 -2 -32 -2 -26 -1 -29 1 -13 7 17 6 45 3 45 -5z m-123
-21 c-3 -3 -12 -4 -19 -1 -8 3 -5 6 6 6 11 1 17 -2 13 -5z m-97 -28 c0 -3 -4
-8 -10 -11 -5 -3 -10 -1 -10 4 0 6 5 11 10 11 6 0 10 -2 10 -4z m-2070 -16 c0
-5 -5 -10 -11 -10 -5 0 -7 5 -4 10 3 6 8 10 11 10 2 0 4 -4 4 -10z m2024 -35
c-6 -16 -24 -21 -24 -7 0 11 11 22 21 22 5 0 6 -7 3 -15z m-54 -30 c-7 -9 -15
-13 -19 -10 -3 3 1 10 9 15 21 14 24 12 10 -5z m50 -15 c0 -5 -7 -10 -16 -10
-8 0 -12 5 -9 10 3 6 10 10 16 10 5 0 9 -4 9 -10z m-310 -90 c0 -5 -2 -10 -4
-10 -3 0 -8 5 -11 10 -3 6 -1 10 4 10 6 0 11 -4 11 -10z m650 -128 c0 -5 -7
-9 -15 -9 -8 0 -15 4 -15 9 0 4 7 8 15 8 8 0 15 -4 15 -8z m-250 -12 c0 -5 -5
-10 -11 -10 -5 0 -7 5 -4 10 3 6 8 10 11 10 2 0 4 -4 4 -10z m323 -14 c4 -10
0 -12 -14 -9 -22 6 -26 23 -5 23 8 0 16 -6 19 -14z m109 -10 c13 -19 8 -27
-14 -24 -15 2 -24 11 -26 25 -3 18 0 22 15 16 10 -4 21 -11 25 -17z m4538 -2
c174 -6 183 -11 175 -73 -5 -31 -12 -268 -14 -439 -1 -29 -5 -51 -9 -48 -5 3
-12 77 -15 165 -3 90 -11 169 -17 182 -8 15 -9 19 -1 15 7 -5 11 5 12 26 0 18
3 53 5 77 l5 44 -83 -6 c-46 -4 -103 -8 -128 -11 -25 -2 -51 1 -57 6 -10 8
-13 6 -13 -6 0 -9 -4 -16 -10 -16 -5 0 -10 7 -10 15 0 21 -20 19 -20 -2 -1
-17 -1 -17 -14 0 -12 16 -34 19 -157 23 -81 2 -157 0 -174 -5 -26 -9 -23 -10
30 -10 85 1 85 1 79 -18 -5 -15 -4 -16 5 -3 12 17 198 30 187 12 -8 -14 -46
-22 -46 -10 0 6 -22 8 -57 4 -56 -6 -85 -16 -45 -16 11 0 24 -5 28 -11 4 -8
-3 -9 -26 -4 -23 5 -30 4 -26 -4 4 -6 4 -11 -1 -10 -4 1 -21 1 -37 0 -20 -1
-27 -5 -23 -15 8 -19 -14 -26 -86 -27 -106 -3 -48 -13 91 -16 75 -1 155 -7
177 -12 41 -9 -392 -8 -1360 5 -533 7 -668 0 -811 -42 -186 -53 -289 -127
-689 -494 -81 -74 -193 -175 -250 -225 -56 -49 -173 -153 -260 -230 -246 -219
-274 -243 -365 -308 -196 -140 -358 -195 -615 -206 -88 -4 -176 -4 -195 0
l-35 7 43 1 c23 0 42 6 42 12 0 6 9 8 23 3 50 -16 266 -1 222 16 -18 7 -18 8
8 15 15 4 27 11 27 16 0 5 18 9 39 9 22 0 43 5 47 11 5 9 -6 10 -40 5 -38 -6
-46 -5 -46 8 0 9 6 16 13 16 8 0 7 4 -3 10 -12 8 -9 10 12 10 37 0 58 10 58
26 0 17 -12 18 -28 2 -6 -6 -15 -8 -19 -4 -4 4 -1 11 7 16 12 8 13 13 2 30 -7
11 -8 20 -3 20 5 0 11 -5 13 -12 7 -21 41 0 34 22 -3 11 -9 28 -12 38 -4 15 3
21 35 32 46 15 51 24 21 40 -25 13 -26 30 -2 30 14 0 17 8 17 39 0 32 4 42 23
51 16 7 22 16 18 26 -5 13 -1 14 24 9 32 -7 38 2 18 24 -11 11 -7 12 21 6 32
-7 34 -6 19 9 -9 9 -24 16 -32 16 -23 0 -20 5 19 47 37 39 41 48 25 58 -5 3
-10 13 -10 22 0 11 8 14 30 11 26 -4 29 -2 24 14 -3 11 0 18 7 18 10 0 10 3 1
12 -8 8 -6 17 11 34 12 13 27 24 33 24 7 0 15 11 18 25 4 14 14 25 24 26 14 0
14 2 -3 9 -19 8 -18 9 4 9 18 1 21 4 12 14 -14 17 -4 27 25 27 12 0 24 7 27
14 4 11 1 13 -11 9 -14 -6 -15 -5 -2 9 8 8 20 14 26 11 6 -2 17 3 24 12 18 21
33 19 27 -5 -3 -11 -1 -20 4 -20 5 0 9 14 9 30 0 24 4 30 21 30 26 0 44 19 44
45 0 11 5 20 12 20 6 0 15 3 19 8 4 4 15 7 24 7 23 0 48 29 33 38 -8 5 -7 13
3 26 8 11 15 17 15 13 1 -4 2 -11 3 -16 3 -23 16 -21 25 3 6 14 16 26 23 27 7
0 4 5 -7 10 -17 8 -16 9 7 6 16 -3 25 0 21 6 -6 10 -75 5 -105 -8 -10 -4 -18
-3 -18 2 0 5 42 22 93 37 199 58 498 160 608 206 436 184 630 245 869 271 80
8 1979 3 2240 -7z m-4740 -24 c0 -5 -4 -10 -10 -10 -5 0 -10 5 -10 10 0 6 5
10 10 10 6 0 10 -4 10 -10z m50 1 c0 -5 -7 -11 -14 -14 -10 -4 -13 -1 -9 9 6
15 23 19 23 5z m143 -11 c7 0 6 -4 -3 -10 -12 -7 -12 -12 4 -28 12 -15 14 -22
6 -27 -14 -9 -30 12 -30 38 0 9 -4 17 -10 17 -5 0 -10 5 -10 11 0 6 7 8 16 5
9 -3 21 -6 27 -6z m-973 -30 c0 -5 -8 -10 -17 -10 -15 0 -16 2 -3 10 19 12 20
12 20 0z m376 -17 c-10 -10 -19 5 -10 18 6 11 8 11 12 0 2 -7 1 -15 -2 -18z
m545 4 c-1 -12 -15 -9 -19 4 -3 6 1 10 8 8 6 -3 11 -8 11 -12z m-584 -15 c-9
-2 -15 -8 -12 -12 3 -5 -6 -12 -20 -16 -27 -7 -33 -31 -12 -54 10 -12 9 -12
-8 0 -11 8 -21 15 -23 16 -8 5 20 44 31 44 7 0 18 9 25 20 8 13 17 18 25 13 8
-5 7 -9 -6 -11z m460 12 c-3 -3 -12 -4 -19 -1 -8 3 -5 6 6 6 11 1 17 -2 13 -5z
m4433 -24 c-8 -5 -19 -10 -25 -10 -5 0 -3 5 5 10 8 5 20 10 25 10 6 0 3 -5 -5
-10z m-4340 -4 c0 -2 -7 -6 -15 -10 -8 -3 -15 -1 -15 4 0 6 7 10 15 10 8 0 15
-2 15 -4z m33 -21 c4 -8 2 -17 -3 -20 -6 -4 -10 -4 -10 -1 0 2 -3 11 -6 20 -3
9 -2 16 4 16 5 0 12 -7 15 -15z m127 5 c0 -5 -4 -10 -10 -10 -5 0 -10 5 -10
10 0 6 5 10 10 10 6 0 10 -4 10 -10z m-1120 -20 c-20 -13 -33 -13 -25 0 3 6
14 10 23 10 15 0 15 -2 2 -10z m-1326 -82 c-44 -40 -124 -116 -179 -168 -55
-52 -139 -131 -185 -174 -47 -44 -127 -120 -178 -169 -51 -50 -94 -88 -97 -85
-3 3 75 81 172 174 98 93 219 208 268 255 134 129 269 249 274 244 2 -2 -32
-37 -75 -77z m6506 72 c0 -5 -4 -10 -9 -10 -6 0 -13 5 -16 10 -3 6 1 10 9 10
9 0 16 -4 16 -10z m-4055 -20 c-3 -5 -10 -10 -16 -10 -5 0 -9 5 -9 10 0 6 7
10 16 10 8 0 12 -4 9 -10z m-831 -24 c-6 -15 -24 -23 -24 -11 0 8 24 34 28 30
1 -1 0 -10 -4 -19z m926 20 c0 -3 -4 -8 -10 -11 -5 -3 -10 -1 -10 4 0 6 5 11
10 11 6 0 10 -2 10 -4z m4351 -89 c-10 -9 -11 -8 -5 6 3 10 9 15 12 12 3 -3 0
-11 -7 -18z m-1 -27 c0 -5 -2 -10 -4 -10 -3 0 -8 5 -11 10 -3 6 -1 10 4 10 6
0 11 -4 11 -10z m-2150 -32 c0 -6 7 -7 15 -4 27 10 232 16 210 6 -15 -6 -4 -9
40 -9 45 -1 56 2 45 10 -11 8 -8 9 15 4 17 -4 31 -11 33 -16 2 -5 11 -5 20 0
9 4 44 11 77 14 39 3 53 2 40 -4 -16 -7 -11 -8 20 -7 68 2 78 -1 71 -18 -4
-10 3 -18 24 -26 28 -9 34 -18 31 -44 -1 -7 8 -14 20 -17 11 -3 18 -10 15 -15
-3 -5 6 -7 19 -4 27 5 33 17 13 25 -8 3 -7 6 4 6 9 1 20 -4 23 -9 4 -6 10 -8
15 -5 4 3 18 1 31 -3 12 -5 40 -6 61 -2 44 8 51 -5 11 -22 -16 -6 -41 -16 -58
-23 -16 -7 -55 -18 -85 -24 -30 -7 -83 -24 -118 -38 -34 -14 -66 -23 -69 -19
-4 4 1 20 11 36 l17 30 -24 -9 c-15 -6 -40 -6 -63 0 -53 12 -140 -6 -170 -37
-28 -27 -30 -55 -7 -91 17 -26 17 -26 -4 -14 -53 28 -68 89 -32 135 11 14 17
26 12 26 -4 0 -17 -13 -28 -28 -28 -38 -23 -96 13 -168 27 -54 28 -60 13 -75
-16 -17 -85 -49 -103 -49 -6 0 -5 7 2 15 9 11 9 15 1 15 -7 0 -9 5 -5 11 5 8
9 7 14 -1 5 -8 16 -10 25 -6 10 3 15 10 11 14 -11 10 -95 9 -93 -1 1 -5 -14
-16 -33 -23 -35 -14 -19 -13 43 2 17 4 27 2 27 -5 0 -6 -5 -11 -12 -11 -9 0
-9 -3 0 -12 14 -14 16 -64 3 -73 -5 -3 -11 2 -13 12 -2 9 -13 17 -26 18 -20 2
-23 -2 -20 -31 1 -18 -1 -36 -5 -40 -4 -4 -7 0 -7 9 0 10 -4 17 -10 17 -17 0
-11 -28 7 -39 21 -11 13 -24 -10 -16 -8 4 -18 17 -21 31 -4 13 -11 24 -16 24
-13 0 -13 -27 0 -35 6 -4 7 -11 4 -17 -4 -6 -12 -1 -20 13 -7 13 -10 27 -8 31
3 5 -4 8 -15 8 -15 0 -19 -4 -14 -17 5 -13 2 -15 -11 -10 -14 6 -16 3 -10 -15
5 -17 3 -20 -10 -15 -10 4 -16 1 -16 -9 0 -8 -5 -12 -11 -9 -11 8 -69 -13 -69
-25 0 -4 18 -6 40 -4 22 1 40 -1 40 -6 0 -4 -20 -10 -44 -11 -24 -2 -42 -1
-39 4 7 12 -40 24 -79 19 -37 -4 -48 -15 -28 -27 6 -4 8 -10 5 -15 -3 -4 2
-13 9 -19 10 -8 16 -9 21 -1 3 5 13 10 21 10 8 0 13 -4 10 -9 -4 -5 0 -11 6
-13 7 -3 -2 -5 -21 -5 -20 0 -39 -6 -46 -16 -6 -9 -23 -18 -38 -21 -36 -6 -49
-15 -41 -28 5 -7 2 -9 -8 -5 -11 4 -18 -2 -23 -16 -6 -22 -6 -22 -15 -2 -8 18
-9 17 -9 -7 -1 -34 -18 -37 -31 -5 -8 20 -9 18 -10 -13 -1 -30 -2 -32 -10 -13
-11 27 -2 63 14 57 7 -3 23 4 36 16 17 15 19 20 7 20 -24 0 -71 -20 -79 -33
-6 -9 -8 -9 -8 1 0 9 -5 10 -19 2 -11 -5 -31 -11 -45 -12 -15 -1 -26 -8 -26
-14 0 -7 8 -10 20 -7 11 3 20 0 20 -6 0 -6 -13 -11 -30 -11 -20 0 -30 5 -30
15 0 8 -5 15 -11 15 -6 0 -9 -9 -6 -20 3 -11 1 -20 -4 -20 -5 0 -9 4 -9 9 0 5
-14 20 -32 32 -17 13 -28 18 -25 12 11 -17 -12 -27 -28 -13 -20 16 -19 3 0
-17 9 -8 25 -13 35 -10 23 6 27 -8 5 -17 -9 -3 -25 0 -36 7 -17 10 -22 9 -30
-5 -16 -29 -28 -21 -25 16 3 29 0 34 -19 32 -22 -1 -23 -23 -2 -37 5 -3 2 -9
-7 -12 -9 -4 -15 -3 -15 1 4 23 -4 24 -16 2 l-13 -25 -11 28 c-6 15 -17 27
-26 27 -19 0 -20 -36 -1 -43 19 -7 9 -47 -11 -47 -9 0 -13 6 -10 13 7 17 -9
44 -20 34 -4 -5 -1 -13 7 -18 13 -9 13 -10 0 -6 -8 2 -16 15 -18 29 -3 27 -42
48 -42 23 0 -8 -8 -11 -20 -8 -11 3 -20 0 -20 -6 0 -6 -7 -11 -16 -11 -13 0
-11 5 7 25 13 13 30 25 38 25 8 0 11 3 8 7 -4 3 -25 0 -46 -7 -29 -9 -38 -17
-34 -29 4 -10 3 -12 -3 -6 -5 5 -13 13 -17 16 -13 9 45 43 71 41 12 -1 22 3
22 9 0 8 -15 10 -44 7 -35 -4 -43 -2 -39 8 3 8 20 14 39 14 19 0 34 5 34 11 0
5 -5 7 -10 4 -6 -4 -19 -3 -28 1 -9 4 -30 6 -47 5 -24 -2 -27 0 -15 9 12 9 12
13 2 17 -20 8 15 43 36 36 12 -3 13 -2 5 4 -21 15 81 107 113 103 4 -1 12 9
19 22 6 13 17 22 23 21 7 -2 12 3 12 11 0 14 117 128 186 181 21 17 61 52 89
78 161 154 276 227 410 262 86 23 185 30 185 13z m-3670 -18 c0 -5 -5 -10 -11
-10 -5 0 -7 5 -4 10 3 6 8 10 11 10 2 0 4 -4 4 -10z m2005 -170 c-27 -12 -43
-12 -25 0 8 5 22 9 30 9 10 0 8 -3 -5 -9z m3999 -109 c-3 -70 -4 -75 -13 -65
-5 5 -7 30 -4 56 6 52 19 59 17 9z m-3994 25 c0 -3 -4 -8 -10 -11 -5 -3 -10
-1 -10 4 0 6 5 11 10 11 6 0 10 -2 10 -4z m2425 -74 c-3 -3 -11 0 -18 7 -9 10
-8 11 6 5 10 -3 15 -9 12 -12z m-105 -26 c0 -3 -4 -8 -10 -11 -5 -3 -10 -1
-10 4 0 6 5 11 10 11 6 0 10 -2 10 -4z m65 -6 c3 -5 17 -10 31 -10 13 0 24 -6
24 -13 0 -9 -12 -13 -34 -13 -28 1 -35 6 -39 24 -4 22 7 30 18 12z m-50 -50
c-3 -5 -11 -10 -16 -10 -6 0 -7 5 -4 10 3 6 11 10 16 10 6 0 7 -4 4 -10z
m-3455 -15 c-7 -8 -17 -15 -23 -15 -6 0 -2 7 9 15 25 19 30 19 14 0z m3500 5
c0 -13 57 -13 65 0 9 14 25 2 24 -18 0 -9 -3 -12 -5 -6 -3 7 -18 9 -44 4 -23
-4 -40 -3 -40 2 0 5 -4 6 -10 3 -5 -3 -15 -3 -21 1 -8 4 -7 9 2 15 19 12 29
11 29 -1z m-420 -8 c0 -5 -9 -18 -21 -30 -19 -22 -39 -22 -39 -1 0 6 4 8 8 5
5 -3 16 4 25 15 18 20 27 24 27 11z m204 -6 c-3 -8 -1 -17 5 -21 6 -3 11 -11
11 -18 0 -6 -7 -1 -16 11 -16 23 -50 30 -56 11 -2 -6 -20 -11 -41 -11 -20 0
-35 -3 -33 -6 2 -4 -2 -13 -10 -20 -12 -11 -15 -10 -20 2 -8 20 -23 20 -38 2
-13 -16 -71 -32 -61 -16 3 5 13 10 21 10 8 0 14 5 14 10 0 6 7 10 15 10 9 0
18 7 21 15 5 13 9 13 21 3 12 -10 17 -9 27 4 8 11 31 18 67 21 30 2 59 4 66 5
7 1 10 -4 7 -12z m166 -17 c0 -6 -7 -9 -15 -5 -8 3 -15 1 -15 -4 0 -6 -10 -10
-22 -10 -13 0 -30 -5 -38 -10 -10 -6 -20 -4 -32 7 -22 20 -23 43 -3 43 8 0 12
-6 9 -14 -7 -17 29 -11 60 10 20 14 56 3 56 -17z m-3490 -13 c0 -3 -4 -8 -10
-11 -5 -3 -10 -1 -10 4 0 6 5 11 10 11 6 0 10 -2 10 -4z m3530 -5 c0 -11 -25
-21 -51 -21 -12 0 -17 4 -14 11 4 6 13 8 21 5 7 -3 16 -1 19 4 8 13 25 13 25
1z m-480 -11 c0 -5 -4 -10 -9 -10 -6 0 -13 5 -16 10 -3 6 1 10 9 10 9 0 16 -4
16 -10z m260 0 c0 -5 -4 -10 -10 -10 -5 0 -10 5 -10 10 0 6 5 10 10 10 6 0 10
-4 10 -10z m284 4 c9 -3 14 -10 11 -14 -6 -10 -45 -1 -45 11 0 10 12 11 34 3z
m-4976 -24 c-13 -20 -28 -27 -28 -12 0 10 22 32 32 32 5 0 3 -9 -4 -20z m4402
10 c11 -7 12 -14 4 -27 -18 -30 -33 -27 -31 6 2 34 5 35 27 21z m230 -5 c-10
-12 -10 -15 4 -15 22 0 20 -17 -3 -23 -25 -6 -33 23 -11 40 21 17 25 16 10 -2z
m-5837 -19 c-10 -13 -20 -22 -22 -20 -4 4 29 44 36 44 2 0 -4 -11 -14 -24z
m2556 21 c-2 -1 -13 -9 -24 -17 -19 -14 -19 -14 -6 3 7 9 18 17 24 17 6 0 8
-1 6 -3z m3241 -22 c0 -10 -10 -15 -27 -15 -27 1 -27 1 -9 15 25 19 36 19 36
0z m120 6 c0 -5 -9 -11 -21 -14 -16 -4 -18 -3 -8 9 13 16 29 19 29 5z m80 5
c0 -3 -4 -8 -10 -11 -5 -3 -10 -1 -10 4 0 6 5 11 10 11 6 0 10 -2 10 -4z m-33
-12 c-3 -3 -12 -4 -19 -1 -8 3 -5 6 6 6 11 1 17 -2 13 -5z m223 -32 c0 -4 -26
-23 -57 -42 -57 -35 -58 -35 -213 -41 -124 -6 -165 -11 -208 -28 -84 -34 -173
-81 -217 -114 -61 -47 -201 -164 -285 -237 -189 -167 -262 -207 -444 -245 -91
-19 -148 -56 -144 -93 3 -24 7 -27 43 -26 80 1 265 36 371 70 124 40 178 69
249 132 27 24 96 78 154 121 57 42 122 92 145 112 75 65 228 169 249 169 24 0
-6 -26 -90 -78 -89 -55 -181 -132 -158 -132 6 0 -15 -17 -45 -37 -30 -20 -77
-54 -103 -75 -27 -21 -54 -38 -61 -38 -6 0 -43 -31 -80 -70 -38 -38 -76 -70
-85 -70 -10 0 -21 -4 -26 -9 -17 -17 -247 -80 -364 -101 -127 -22 -196 -25
-206 -9 -9 14 -36 -38 -39 -73 -1 -19 3 -28 13 -29 22 -2 48 -7 106 -19 33 -7
59 -7 75 -1 14 6 104 15 200 21 375 24 375 24 525 128 44 31 159 108 255 173
96 64 209 144 250 177 86 70 136 88 212 78 60 -8 124 -38 95 -44 -18 -4 -18
-5 -1 -23 18 -20 17 -20 -6 -11 -93 35 -211 16 -295 -47 -44 -34 -318 -221
-530 -362 -100 -67 -136 -76 -346 -88 -101 -6 -243 -16 -316 -22 -72 -7 -139
-8 -150 -4 -22 10 -313 6 -448 -5 -74 -6 -102 -6 -107 3 -11 18 -10 37 3 37 6
0 8 -7 5 -15 -8 -22 18 -29 46 -14 16 9 78 14 203 15 222 3 211 2 200 13 -6 5
-28 11 -50 13 l-40 4 32 13 c25 10 39 27 62 75 16 34 41 76 55 94 31 36 114
85 133 78 19 -8 162 46 238 89 35 19 88 57 117 83 75 67 254 220 308 263 110
87 305 181 422 204 46 10 93 22 105 27 12 6 34 7 50 4 69 -17 82 -18 105 -2
23 16 88 22 88 8z m-6234 -64 c-10 -27 -15 -35 -16 -21 0 23 20 76 27 69 3 -2
-2 -24 -11 -48z m5513 -38 c4 0 13 6 20 13 11 10 11 8 2 -10 -14 -27 -13 -26
-45 -11 -24 10 -24 12 -8 24 14 10 18 10 20 -2 2 -8 7 -14 11 -14z m-260 -23
c-2 -1 -14 -11 -26 -21 -13 -11 -23 -16 -23 -13 0 10 31 37 42 37 6 0 9 -1 7
-3z m-5262 -109 c-2 -13 -4 -5 -4 17 -1 22 1 32 4 23 2 -10 2 -28 0 -40z
m4383 7 c0 -9 -44 -23 -54 -17 -5 3 -1 9 10 13 23 9 44 11 44 4z m1370 0 c0
-6 -73 -55 -82 -55 -20 0 -4 20 30 38 38 21 52 26 52 17z m-774 -62 c-1 -17
-37 -43 -57 -43 -7 0 49 58 57 60 1 0 1 -8 0 -17z m-596 -7 c0 -3 -4 -8 -10
-11 -5 -3 -10 -1 -10 4 0 6 5 11 10 11 6 0 10 -2 10 -4z m2080 -7 c0 -4 -7
-12 -15 -19 -12 -10 -15 -10 -15 1 0 9 -3 10 -8 4 -9 -13 -162 -7 -162 6 0 6
4 8 8 5 5 -3 30 -2 57 2 60 9 135 9 135 1z m-1630 -38 c0 -5 -9 -11 -19 -14
-17 -4 -18 -2 -8 13 10 18 27 18 27 1z m220 9 c0 -5 -5 -10 -11 -10 -5 0 -7 5
-4 10 3 6 8 10 11 10 2 0 4 -4 4 -10z m1060 6 c0 -4 -109 -31 -160 -40 -22 -4
-135 -34 -197 -52 -13 -3 -23 -11 -23 -17 0 -7 -4 -7 -12 1 -20 20 2 32 147
74 88 25 245 47 245 34z m-39 -61 c0 -6 -9 -10 -19 -11 -9 -1 -40 -5 -67 -9
-28 -5 -54 -7 -59 -6 -4 1 -13 -3 -20 -8 -12 -10 -87 -32 -118 -34 -9 -1 -15
-4 -12 -8 4 -6 -39 -39 -51 -39 -11 0 38 59 54 65 37 15 124 35 154 35 18 0
52 7 77 14 49 16 62 16 61 1z m-381 -39 c0 -2 -7 -6 -15 -10 -8 -3 -15 -1 -15
4 0 6 7 10 15 10 8 0 15 -2 15 -4z m-490 -31 c0 -10 -70 -34 -130 -44 -81 -14
-873 -23 -865 -10 4 5 -8 9 -25 9 -17 0 -29 -4 -26 -8 5 -8 -121 -5 -163 4
-29 6 -18 19 17 20 15 0 72 4 127 9 55 4 312 11 570 14 259 4 476 8 483 9 6 1
12 0 12 -3z m220 1 c0 -2 -7 -7 -16 -10 -8 -3 -12 -2 -9 4 6 10 25 14 25 6z
m854 -42 c24 -9 19 -33 -8 -46 -31 -14 -56 -4 -56 21 0 26 30 38 64 25z m-574
-38 c0 -2 -8 -10 -17 -17 -16 -13 -17 -12 -4 4 13 16 21 21 21 13z m-2540 -76
c0 -5 -4 -10 -10 -10 -5 0 -10 5 -10 10 0 6 5 10 10 10 6 0 10 -4 10 -10z
m1560 -64 c0 -2 -8 -10 -17 -17 -16 -13 -17 -12 -4 4 13 16 21 21 21 13z
m-160 -26 c21 -7 19 -8 -17 -9 -24 -1 -43 4 -43 9 0 12 24 12 60 0z m-4205
-40 c-3 -5 -11 -10 -16 -10 -6 0 -7 5 -4 10 3 6 11 10 16 10 6 0 7 -4 4 -10z
m2735 6 c0 -2 -7 -6 -15 -10 -8 -3 -15 -1 -15 4 0 6 7 10 15 10 8 0 15 -2 15
-4z m1417 -2 c-3 -3 -12 -4 -19 -1 -8 3 -5 6 6 6 11 1 17 -2 13 -5z m1291 -36
c-41 -40 -121 -94 -203 -138 -33 -18 -64 -36 -69 -41 -6 -5 -16 -9 -24 -9 -8
0 -28 -10 -44 -22 -20 -14 -29 -17 -26 -7 2 8 36 32 74 54 107 61 172 102 249
155 39 26 72 46 74 44 2 -2 -12 -18 -31 -36z m-1353 0 c-11 -6 -23 -16 -27
-22 -4 -6 -10 -7 -14 -3 -9 9 25 36 46 36 10 0 9 -3 -5 -11z m-278 -40 c-3 -8
-6 -5 -6 6 -1 11 2 17 5 13 3 -3 4 -12 1 -19z m-3907 -8 c0 -5 -2 -10 -4 -10
-3 0 -8 5 -11 10 -3 6 -1 10 4 10 6 0 11 -4 11 -10z m4155 -38 c0 -32 5 -39
35 -54 34 -17 34 -18 8 -18 -15 0 -30 5 -33 10 -10 16 -28 12 -21 -5 4 -12 -4
-15 -42 -14 -34 0 -41 3 -27 8 11 5 25 6 31 4 15 -5 38 23 25 31 -6 4 -5 19 4
40 8 18 12 36 10 40 -3 3 -2 3 3 0 4 -3 7 -22 7 -42z m2059 27 c20 -12 36 -22
36 -24 0 -2 -18 -1 -39 2 -32 4 -55 -2 -123 -35 -124 -60 -143 -64 -189 -44
-21 9 -39 20 -39 24 0 12 14 10 28 -4 9 -9 20 -5 49 18 86 67 120 82 195 83
31 1 59 -6 82 -20z m-304 2 c52 -9 46 -12 -82 -36 -97 -18 -145 -49 -253 -163
-231 -245 -245 -257 -356 -310 -116 -56 -239 -88 -270 -72 -27 15 -23 23 9 16
34 -8 166 31 248 73 47 24 102 73 240 212 217 219 311 289 389 288 17 0 50 -4
75 -8z m-2996 -23 c4 -17 8 -20 14 -10 7 9 39 12 133 9 144 -4 226 -25 231
-60 2 -11 9 -22 17 -25 8 -3 11 0 7 7 -10 15 23 26 37 12 8 -8 8 -11 -1 -11
-7 0 -12 -4 -12 -10 0 -5 21 -10 48 -10 46 -1 89 -20 75 -34 -4 -4 1 -4 12 0
11 4 25 14 31 22 9 13 12 13 17 -2 4 -9 2 -16 -3 -16 -5 0 -7 -6 -4 -14 4 -11
-3 -12 -34 -6 -22 4 -47 3 -56 -2 -11 -6 -16 -5 -16 6 0 8 8 17 18 19 13 4 12
5 -4 6 -12 0 -24 -6 -28 -14 -3 -9 -18 -15 -38 -14 -30 1 -31 2 -8 8 42 12 7
20 -46 12 -27 -5 -39 -9 -26 -10 12 0 22 -6 22 -12 0 -6 -7 -8 -16 -5 -9 3
-32 6 -52 6 -25 0 -32 3 -23 9 19 12 0 20 -24 10 -11 -4 -14 -8 -7 -8 21 -1
13 -21 -9 -21 -11 0 -18 -4 -15 -9 8 -12 155 -11 162 0 6 11 24 2 24 -12 0 -6
-4 -8 -9 -5 -5 3 -22 2 -37 -3 -34 -11 -734 -22 -837 -14 -61 6 -67 8 -42 15
17 4 38 5 48 2 9 -3 17 -1 17 4 0 5 23 8 50 7 28 -2 53 1 56 6 8 13 42 11 47
-3 3 -7 6 2 6 20 1 29 -2 33 -19 27 -16 -5 -20 -2 -20 15 0 17 -4 20 -20 15
-14 -5 -20 -2 -20 9 0 9 5 16 10 16 6 0 10 9 10 20 0 11 7 20 16 20 8 0 12 5
9 10 -3 6 -25 10 -48 11 -40 1 -40 1 -13 9 16 5 60 9 98 9 39 0 72 2 76 5 3 3
47 6 98 6 87 0 92 -1 98 -22z m33 16 c-3 -3 -12 -4 -19 -1 -8 3 -5 6 6 6 11 1
17 -2 13 -5z m1920 -24 c-14 -11 -38 -20 -54 -20 -15 0 -59 -7 -98 -16 -119
-26 -142 -28 -128 -14 6 7 30 14 52 16 21 1 48 7 59 13 12 6 33 11 49 12 15 0
48 6 73 13 66 19 76 18 47 -4z m-977 -14 c0 -3 -4 -8 -10 -11 -5 -3 -10 -1
-10 4 0 6 5 11 10 11 6 0 10 -2 10 -4z m622 -31 c47 -1 79 -14 42 -16 -10 -1
-32 -3 -49 -4 -37 -2 -75 11 -75 26 0 7 7 8 18 3 9 -4 38 -8 64 -9z m-1027
-25 c3 -5 2 -10 -4 -10 -5 0 -13 5 -16 10 -3 6 -2 10 4 10 5 0 13 -4 16 -10z
m95 -40 c0 -5 -5 -10 -11 -10 -5 0 -7 5 -4 10 3 6 8 10 11 10 2 0 4 -4 4 -10z
m2450 0 c75 -20 135 -19 193 5 10 4 17 3 17 -4 0 -36 -162 -45 -233 -12 -45
21 -33 27 23 11z m-2330 -24 c8 -1 18 -5 22 -11 8 -11 12 -12 73 -15 35 -2 37
-3 15 -10 -25 -8 -377 -14 -369 -6 2 2 64 6 136 8 73 3 136 8 140 13 5 4 -4 5
-19 3 -16 -3 -28 -1 -28 5 0 5 -11 7 -25 5 -14 -3 -25 -2 -25 3 0 12 23 18 45
12 11 -3 27 -6 35 -7z m160 10 c0 -3 -4 -8 -10 -11 -5 -3 -10 -1 -10 4 0 6 5
11 10 11 6 0 10 -2 10 -4z m-1233 -12 c-3 -3 -12 -4 -19 -1 -8 3 -5 6 6 6 11
1 17 -2 13 -5z m1258 -4 c3 -5 1 -10 -4 -10 -6 0 -11 5 -11 10 0 6 2 10 4 10
3 0 8 -4 11 -10z m1265 0 c-8 -5 -31 -10 -50 -10 -26 0 -31 3 -20 10 8 5 31
10 50 10 26 0 31 -3 20 -10z m-1550 -10 c0 -5 -13 -10 -30 -10 -16 0 -30 5
-30 10 0 6 14 10 30 10 17 0 30 -4 30 -10z m-171 -26 c2 -2 -12 -4 -33 -4 -22
0 -35 4 -31 10 5 9 52 4 64 -6z m488 -8 c-2 -6 -15 -13 -30 -17 -45 -12 -150
-94 -259 -200 -230 -227 -343 -317 -483 -387 -189 -95 -307 -106 -1070 -98
-780 9 -1428 25 -1439 36 -7 7 -5 10 5 10 7 0 26 7 41 14 15 8 30 11 33 6 3
-4 -1 -10 -7 -13 -7 -2 87 -4 209 -3 121 0 219 4 216 9 -2 4 6 8 19 8 215 14
263 18 281 24 10 4 17 3 17 -4 0 -6 16 -11 38 -10 27 0 32 2 18 8 -27 11 -6
21 32 16 18 -2 32 -1 32 3 0 5 33 13 73 20 39 6 103 18 141 25 39 8 87 12 108
9 24 -3 44 0 54 9 9 7 46 16 83 20 36 4 118 13 182 20 108 12 119 11 155 -6
29 -14 59 -18 117 -17 49 1 77 -3 77 -10 0 -7 25 -8 80 -4 63 6 80 5 80 -6 0
-10 24 -13 104 -13 86 1 108 4 124 19 13 11 22 14 27 7 3 -6 1 -11 -4 -11 -6
0 -11 -5 -11 -11 0 -8 14 -10 39 -6 27 3 44 0 54 -10 14 -14 22 -11 79 23 86
52 158 107 280 217 131 119 124 112 251 206 59 44 123 85 142 91 18 6 38 17
44 24 12 15 73 16 68 2z m422 10 c-2 -2 -44 -6 -94 -8 -50 -3 -75 -2 -55 2 36
8 157 13 149 6z m-332 -22 c-3 -3 -12 -4 -19 -1 -8 3 -5 6 6 6 11 1 17 -2 13
-5z m81 -1 c-10 -2 -26 -2 -35 0 -10 3 -2 5 17 5 19 0 27 -2 18 -5z m-260
-383 c28 0 52 -4 52 -10 0 -11 -71 -13 -119 -4 -17 4 -31 11 -31 16 0 6 10 8
23 4 12 -3 46 -6 75 -6z m115 -7 c-7 -2 -19 -2 -25 0 -7 3 -2 5 12 5 14 0 19
-2 13 -5z m344 -7 c4 -3 -65 -5 -153 -5 -101 1 -148 4 -129 9 33 9 273 5 282
-4z m-1667 -106 c12 -8 9 -10 -13 -10 -16 0 -26 4 -22 10 8 12 16 12 35 0z
m-3095 -70 c-33 -46 -57 -69 -38 -37 20 34 68 95 72 92 2 -2 -13 -27 -34 -55z
m1246 -46 c10 9 93 16 84 8 -18 -17 -103 -21 -122 -6 -16 13 -15 13 8 5 15 -5
29 -8 30 -7z m-1343 -231 c-10 -2 -28 -2 -40 0 -13 2 -5 4 17 4 22 1 32 -1 23
-4z m161 -19 c2 -2 -14 -4 -37 -4 -23 0 -42 4 -42 9 0 9 69 4 79 -5z m58 10
c-3 -3 -12 -4 -19 -1 -8 3 -5 6 6 6 11 1 17 -2 13 -5z m511 -9 c4 -4 -98 -5
-225 -3 -128 1 -233 7 -233 12 0 10 448 1 458 -9z m240 -2 c-21 -2 -55 -2 -75
0 -21 2 -4 4 37 4 41 0 58 -2 38 -4z m349 0 c-7 -7 -268 -5 -276 2 -2 3 60 5
139 5 79 0 140 -3 137 -7z m723 -4 c-196 -9 -495 -9 -605 0 -53 5 83 7 330 7
279 0 371 -3 275 -7z m203 -6 c-7 -2 -19 -2 -25 0 -7 3 -2 5 12 5 14 0 19 -2
13 -5z m154 1 c-3 -3 -12 -4 -19 -1 -8 3 -5 6 6 6 11 1 17 -2 13 -5z m211 -1
c-21 -2 -55 -2 -75 0 -21 2 -4 4 37 4 41 0 58 -2 38 -4z m105 0 c-13 -2 -33
-2 -45 0 -13 2 -3 4 22 4 25 0 35 -2 23 -4z m356 -9 c2 -2 -29 -3 -70 -3 -59
1 -67 3 -39 9 32 7 99 3 109 -6z m1470 1 c2 -3 -225 -4 -505 -3 -292 1 -439 5
-344 8 186 6 841 2 849 -5z m178 2 c3 -4 -32 -6 -78 -6 -57 1 -74 4 -54 8 35
9 122 7 132 -2z m-2574 -4 c-7 -2 -19 -2 -25 0 -7 3 -2 5 12 5 14 0 19 -2 13
-5z m1350 0 c-7 -2 -21 -2 -30 0 -10 3 -4 5 12 5 17 0 24 -2 18 -5z m1315 0
c-16 -2 -40 -2 -55 0 -16 2 -3 4 27 4 30 0 43 -2 28 -4z m149 1 c-3 -3 -12 -4
-19 -1 -8 3 -5 6 6 6 11 1 17 -2 13 -5z m40 0 c-3 -3 -12 -4 -19 -1 -8 3 -5 6
6 6 11 1 17 -2 13 -5z"/>
<path d="M11498 11973 c7 -3 16 -2 19 1 4 3 -2 6 -13 5 -11 0 -14 -3 -6 -6z"/>
<path d="M11750 11969 c0 -5 9 -9 20 -9 11 0 20 2 20 4 0 2 -9 6 -20 9 -11 3
-20 1 -20 -4z"/>
<path d="M9091 11966 c10 -8 89 -13 83 -5 -3 5 -24 9 -46 9 -23 0 -39 -2 -37
-4z"/>
<path d="M9248 11963 c7 -3 16 -2 19 1 4 3 -2 6 -13 5 -11 0 -14 -3 -6 -6z"/>
<path d="M9318 11963 c12 -2 30 -2 40 0 9 3 -1 5 -23 4 -22 0 -30 -2 -17 -4z"/>
<path d="M11135 11960 c3 -5 8 -10 11 -10 2 0 4 5 4 10 0 6 -5 10 -11 10 -5 0
-7 -4 -4 -10z"/>
<path d="M10448 11953 c7 -3 16 -2 19 1 4 3 -2 6 -13 5 -11 0 -14 -3 -6 -6z"/>
<path d="M11075 11950 c-3 -5 -1 -10 4 -10 6 0 11 5 11 10 0 6 -2 10 -4 10 -3
0 -8 -4 -11 -10z"/>
<path d="M11582 11902 c-7 -5 -10 -16 -6 -26 6 -16 5 -17 -17 -4 -13 7 -28 18
-32 23 -5 6 -6 3 -3 -8 3 -10 -3 -26 -15 -38 -11 -11 -17 -24 -13 -27 3 -4 9
-1 11 6 8 21 32 13 39 -13 5 -19 1 -30 -15 -44 -11 -10 -21 -23 -21 -28 0 -6
-6 -16 -14 -22 -8 -7 -12 -20 -9 -31 4 -15 1 -18 -16 -13 -15 4 -20 2 -16 -8
3 -8 16 -15 30 -15 14 -1 22 2 19 7 -3 5 3 9 14 9 21 0 43 22 60 63 16 37 15
50 -2 44 -10 -4 -12 0 -9 13 3 11 -3 27 -13 37 -17 17 -16 18 12 23 21 4 29
11 27 25 -1 11 4 23 10 27 7 4 8 8 2 8 -5 0 -16 -4 -23 -8z m-22 -150 c0 -4
-9 -15 -20 -25 -11 -9 -20 -12 -20 -7 0 6 7 13 15 16 8 4 12 10 9 15 -3 5 0 9
5 9 6 0 11 -3 11 -8z"/>
<path d="M11725 11900 c-3 -5 -1 -10 4 -10 6 0 11 5 11 10 0 6 -2 10 -4 10 -3
0 -8 -4 -11 -10z"/>
<path d="M11650 11879 c0 -6 -9 -8 -20 -4 -11 4 -20 2 -20 -4 0 -6 5 -11 11
-11 5 0 8 -4 5 -9 -3 -5 1 -14 10 -21 8 -7 13 -19 10 -27 -3 -8 -1 -11 4 -8
13 8 13 32 -1 37 -6 2 -2 14 10 28 l21 25 6 -23 c5 -17 9 -20 14 -11 5 7 2 18
-5 26 -16 16 -45 17 -45 2z"/>
<path d="M11590 11803 c0 -10 4 -24 9 -31 7 -11 9 -11 14 2 4 9 2 16 -4 16 -6
0 -8 4 -4 9 3 5 1 12 -5 16 -5 3 -10 -2 -10 -12z"/>
<path d="M11495 11790 c-19 -7 -19 -8 -2 -15 19 -8 31 -2 26 13 -2 5 -13 6
-24 2z"/>
<path d="M9720 11780 c-51 -4 -69 -7 -45 -9 65 -5 129 0 140 10 6 6 6 8 0 7
-6 -1 -48 -5 -95 -8z"/>
<path d="M9563 11773 c9 -2 25 -2 35 0 9 3 1 5 -18 5 -19 0 -27 -2 -17 -5z"/>
<path d="M9975 11770 c-30 -8 -30 -8 8 -9 20 0 37 4 37 9 0 11 -2 11 -45 0z"/>
<path d="M10105 11770 c-3 -5 -2 -10 4 -10 5 0 13 5 16 10 3 6 2 10 -4 10 -5
0 -13 -4 -16 -10z"/>
<path d="M10184 11769 c-3 -5 11 -9 31 -9 20 0 34 4 31 9 -3 5 -17 9 -31 9
-14 0 -28 -4 -31 -9z"/>
<path d="M10408 11763 c12 -2 32 -2 45 0 12 2 2 4 -23 4 -25 0 -35 -2 -22 -4z"/>
<path d="M10574 11762 c4 -3 43 -7 87 -8 44 -1 77 1 74 4 -4 4 -43 8 -87 9
-44 1 -78 -1 -74 -5z"/>
<path d="M10770 11738 c19 -19 26 -21 28 -11 4 18 3 19 -28 28 l-25 7 25 -24z"/>
<path d="M11210 11711 c0 -5 7 -15 17 -22 15 -13 15 -12 4 9 -12 23 -21 28
-21 13z"/>
<path d="M11300 11705 c0 -9 6 -12 15 -9 8 4 15 10 15 15 0 5 -7 9 -15 9 -8 0
-15 -7 -15 -15z"/>
<path d="M11347 11665 c-4 -8 -2 -17 2 -20 5 -2 11 4 14 15 6 23 -8 27 -16 5z"/>
<path d="M10772 11628 c-24 -38 -19 -53 6 -17 15 22 25 49 17 49 -2 0 -12 -15
-23 -32z"/>
<path d="M11150 11650 c0 -5 4 -10 9 -10 6 0 13 5 16 10 3 6 -1 10 -9 10 -9 0
-16 -4 -16 -10z"/>
<path d="M11300 11650 c0 -5 5 -10 11 -10 5 0 7 5 4 10 -3 6 -8 10 -11 10 -2
0 -4 -4 -4 -10z"/>
<path d="M11465 11620 c-10 -11 -16 -22 -14 -24 2 -2 12 7 22 20 22 29 17 32
-8 4z"/>
<path d="M11357 11608 c-3 -10 -1 -21 4 -24 5 -3 6 -10 3 -16 -4 -7 -2 -8 4
-4 7 4 12 2 12 -3 0 -6 8 -11 18 -11 14 0 12 4 -8 20 l-25 19 29 11 c32 12 28
23 -8 25 -16 0 -27 -6 -29 -17z"/>
<path d="M5270 11608 c-53 -4 -95 -15 -145 -38 -63 -29 -77 -32 -138 -27 -38
2 -74 10 -80 16 -6 6 -25 11 -43 11 -32 0 -68 -30 -158 -131 l-29 -33 28 -22
c64 -51 116 -69 210 -72 113 -4 142 11 168 86 18 53 56 105 88 122 45 25 153
32 594 41 259 6 565 13 680 16 217 5 668 -11 765 -27 30 -6 90 -14 133 -20 43
-5 117 -23 165 -38 48 -16 107 -32 132 -36 l45 -6 -30 17 c-61 33 -252 93
-360 113 -60 11 -191 24 -290 30 -192 10 -1609 9 -1735 -2z"/>
<path d="M11207 11583 c-4 -3 -7 -12 -7 -20 0 -11 4 -11 20 -3 11 6 18 15 15
21 -7 11 -19 12 -28 2z"/>
<path d="M8535 11560 c-3 -5 -1 -10 4 -10 6 0 11 5 11 10 0 6 -2 10 -4 10 -3
0 -8 -4 -11 -10z"/>
<path d="M11275 11559 c-4 -6 -5 -12 -2 -15 2 -3 7 2 10 11 7 17 1 20 -8 4z"/>
<path d="M7570 11542 c0 -6 9 -12 20 -15 11 -3 20 -3 20 -1 0 2 -9 8 -20 14
-11 6 -20 7 -20 2z"/>
<path d="M10946 11523 c-6 -14 -5 -15 5 -6 7 7 10 15 7 18 -3 3 -9 -2 -12 -12z"/>
<path d="M11353 11521 c-21 -25 -33 -27 -33 -6 0 8 -8 15 -17 15 -12 0 -14 -3
-6 -8 7 -4 8 -13 4 -20 -6 -9 -13 -7 -31 8 -28 25 -35 25 -38 3 -8 -49 -6 -76
6 -80 7 -3 12 4 12 17 0 12 4 19 9 15 5 -3 12 -1 16 5 10 16 25 12 25 -7 0 -9
-3 -13 -6 -10 -4 3 -15 -5 -26 -18 -26 -33 -71 -55 -92 -43 -10 5 -23 5 -33
-1 -17 -9 -17 -10 -1 -16 10 -4 16 -10 14 -14 -3 -4 7 -8 20 -9 15 -1 23 2 19
8 -3 6 6 15 20 20 34 13 108 87 100 100 -3 6 0 10 7 10 18 1 64 37 56 45 -4 4
-15 -3 -25 -14z"/>
<path d="M7630 11510 c8 -5 20 -10 25 -10 6 0 3 5 -5 10 -8 5 -19 10 -25 10
-5 0 -3 -5 5 -10z"/>
<path d="M11180 11510 c0 -5 5 -10 10 -10 6 0 10 5 10 10 0 6 -4 10 -10 10 -5
0 -10 -4 -10 -10z"/>
<path d="M11120 11500 c0 -5 7 -7 15 -4 8 4 15 8 15 10 0 2 -7 4 -15 4 -8 0
-15 -4 -15 -10z"/>
<path d="M10660 11490 c0 -5 5 -10 10 -10 6 0 10 5 10 10 0 6 -4 10 -10 10 -5
0 -10 -4 -10 -10z"/>
<path d="M7078 11473 c6 -2 18 -2 25 0 6 3 1 5 -13 5 -14 0 -19 -2 -12 -5z"/>
<path d="M11066 11467 c3 -10 9 -15 12 -12 3 3 0 11 -7 18 -10 9 -11 8 -5 -6z"/>
<path d="M11170 11476 c0 -2 7 -7 16 -10 8 -3 12 -2 9 4 -6 10 -25 14 -25 6z"/>
<path d="M6905 11440 c3 -5 8 -10 11 -10 2 0 4 5 4 10 0 6 -5 10 -11 10 -5 0
-7 -4 -4 -10z"/>
<path d="M7500 11440 c0 -5 6 -10 14 -10 8 0 18 5 21 10 3 6 -3 10 -14 10 -12
0 -21 -4 -21 -10z"/>
<path d="M10540 11378 l-65 -61 62 47 c34 26 64 54 67 62 7 19 9 20 -64 -48z"/>
<path d="M11060 11428 c0 -14 30 -22 41 -11 7 7 2 12 -15 15 -14 3 -26 1 -26
-4z"/>
<path d="M11120 11429 c0 -5 5 -7 10 -4 6 3 10 8 10 11 0 2 -4 4 -10 4 -5 0
-10 -5 -10 -11z"/>
<path d="M11179 11423 c-12 -16 -12 -17 2 -6 9 7 19 10 22 6 4 -3 7 -1 7 5 0
17 -16 15 -31 -5z"/>
<path d="M6913 11411 c-23 -9 -44 -19 -47 -22 -3 -3 36 -6 87 -7 147 -2 230
-9 257 -20 21 -8 22 -11 8 -17 -24 -9 -91 -10 -333 -2 -115 3 -275 5 -355 4
-241 -3 -605 -2 -780 3 -159 5 -166 4 -201 -18 -20 -12 -56 -48 -80 -79 -81
-104 -111 -132 -162 -157 -86 -41 -116 -41 -195 0 -56 29 -73 34 -89 26 -11
-6 -62 -20 -114 -30 -123 -26 -153 -38 -145 -58 4 -11 -1 -18 -14 -21 -11 -3
-20 -9 -20 -14 0 -14 17 -11 34 7 15 14 18 14 40 -7 27 -26 24 -46 -8 -59 -21
-9 -21 -9 2 -9 28 -1 30 -31 2 -38 -11 -3 -20 -14 -20 -25 0 -11 -5 -28 -10
-39 -13 -24 -12 -24 47 5 36 19 78 28 173 37 92 9 132 18 153 32 15 10 34 16
42 13 9 -3 12 0 9 8 -6 16 60 35 102 29 26 -4 45 9 154 104 210 183 237 193
540 193 237 0 1094 36 1112 46 4 3 44 5 90 5 94 1 121 10 116 42 -9 65 -283
113 -395 68z m-1323 -125 c0 -3 -4 -8 -10 -11 -5 -3 -10 -1 -10 4 0 6 5 11 10
11 6 0 10 -2 10 -4z m-87 -134 c-3 -12 -9 -22 -14 -22 -12 0 -11 7 2 32 13 25
20 19 12 -10z"/>
<path d="M7657 11414 c-16 -9 -72 -21 -125 -28 -57 -7 -97 -17 -100 -24 -13
-39 257 16 283 58 9 15 -26 11 -58 -6z"/>
<path d="M8225 11420 c3 -5 8 -10 11 -10 2 0 4 5 4 10 0 6 -5 10 -11 10 -5 0
-7 -4 -4 -10z"/>
<path d="M8286 11363 c-57 -52 -81 -81 -74 -89 2 -1 39 31 83 72 44 40 74 74
67 74 -7 0 -41 -26 -76 -57z"/>
<path d="M7780 11400 c0 -5 5 -10 10 -10 6 0 10 5 10 10 0 6 -4 10 -10 10 -5
0 -10 -4 -10 -10z"/>
<path d="M11020 11400 c0 -5 5 -10 11 -10 5 0 7 5 4 10 -3 6 -8 10 -11 10 -2
0 -4 -4 -4 -10z"/>
<path d="M6820 11390 c-12 -8 -11 -10 8 -10 12 0 22 5 22 10 0 13 -11 13 -30
0z"/>
<path d="M7710 11390 c0 -5 5 -10 11 -10 5 0 7 5 4 10 -3 6 -8 10 -11 10 -2 0
-4 -4 -4 -10z"/>
<path d="M8241 11391 c-8 -5 -9 -11 -3 -15 5 -3 12 1 16 9 6 17 6 18 -13 6z"/>
<path d="M7410 11375 c0 -8 2 -15 4 -15 2 0 6 7 10 15 3 8 1 15 -4 15 -6 0
-10 -7 -10 -15z"/>
<path d="M10840 11380 c0 -5 5 -10 10 -10 6 0 10 5 10 10 0 6 -4 10 -10 10 -5
0 -10 -4 -10 -10z"/>
<path d="M11090 11375 c7 -8 16 -15 21 -15 5 0 9 7 9 15 0 9 -9 15 -21 15 -18
0 -19 -2 -9 -15z"/>
<path d="M7818 11348 c20 -20 14 -28 -20 -28 -18 -1 -51 -8 -73 -16 -121 -47
-219 -76 -295 -89 -88 -15 -370 -37 -692 -55 -103 -6 -238 -17 -300 -26 -62
-8 -219 -18 -348 -23 -320 -12 -299 -3 -586 -252 -54 -47 -116 -96 -136 -108
-41 -25 -46 -35 -23 -57 8 -8 11 -22 8 -31 -13 -33 73 29 219 160 79 70 154
134 167 143 37 27 117 43 286 59 231 22 245 24 239 39 -3 9 23 17 93 30 150
26 256 35 549 45 445 17 517 27 769 106 94 29 180 56 193 60 29 8 28 19 -3 39
-30 19 -66 23 -47 4z"/>
<path d="M7675 11343 c-11 -2 -63 -15 -115 -28 -150 -37 -365 -63 -630 -75
-135 -6 -328 -15 -430 -21 -102 -6 -309 -10 -460 -9 -313 2 -428 -12 -162 -20
277 -8 503 -6 782 8 639 31 766 46 975 113 106 33 129 52 40 32z"/>
<path d="M11058 11343 c-10 -2 -18 -9 -18 -15 0 -6 10 -8 25 -4 26 7 31 0 17
-22 -5 -8 -16 -10 -27 -6 -14 6 -17 4 -13 -8 4 -9 2 -20 -4 -26 -6 -6 -6 -12
3 -17 7 -5 10 -4 5 3 -3 6 4 18 16 26 35 25 41 19 17 -16 l-23 -33 25 20 c13
11 36 32 52 46 23 22 25 28 11 33 -22 9 -24 8 -18 -9 4 -10 0 -15 -11 -15 -9
0 -15 6 -13 12 4 11 -15 40 -24 37 -2 -1 -11 -3 -20 -6z"/>
<path d="M8058 11333 c7 -3 16 -2 19 1 4 3 -2 6 -13 5 -11 0 -14 -3 -6 -6z"/>
<path d="M7398 11323 c12 -2 32 -2 45 0 12 2 2 4 -23 4 -25 0 -35 -2 -22 -4z"/>
<path d="M8080 11290 c-8 -5 -10 -10 -5 -10 6 0 17 5 25 10 8 5 11 10 5 10 -5
0 -17 -5 -25 -10z"/>
<path d="M5270 11280 c-45 -7 -45 -7 17 -8 34 -1 65 3 68 8 7 11 -15 11 -85 0z"/>
<path d="M7890 11282 c0 -5 -12 -15 -27 -21 -26 -12 -218 -78 -253 -87 -8 -2
-49 -12 -90 -23 -41 -11 -111 -25 -155 -30 -96 -13 -563 -32 -760 -31 -92 0
-135 -3 -125 -9 8 -6 32 -13 52 -16 21 -4 36 -10 33 -15 -9 -15 7 -41 22 -35
10 3 13 1 10 -9 -8 -19 38 -57 59 -49 11 4 15 3 10 -5 -11 -18 15 -25 32 -8
15 15 14 16 -6 16 -13 0 -21 4 -18 9 3 5 0 9 -7 8 -56 -2 -68 27 -12 30 19 2
35 -1 35 -5 0 -11 100 -5 215 13 55 9 136 20 180 24 l80 8 -71 2 c-39 0 -94
-3 -122 -9 -28 -5 -102 -10 -164 -10 -145 -1 -150 -1 -164 11 -9 7 -19 7 -33
-1 -17 -9 -21 -8 -21 6 0 14 9 15 58 11 31 -3 75 -1 97 4 22 5 173 13 335 18
324 11 401 22 599 87 57 19 108 34 113 34 21 0 147 66 145 75 -4 13 -47 19
-47 7z"/>
<path d="M8010 11254 c0 -8 5 -12 10 -9 6 3 10 10 10 16 0 5 -4 9 -10 9 -5 0
-10 -7 -10 -16z"/>
<path d="M7925 11230 c-16 -12 -43 -27 -60 -35 -67 -32 -286 -98 -412 -122
-73 -15 -133 -31 -133 -36 0 -5 7 -7 14 -4 10 4 13 1 10 -8 -5 -11 -10 -12
-24 -3 -14 9 -24 9 -42 1 -13 -7 -38 -15 -55 -18 -23 -5 -33 -12 -33 -25 0
-10 -18 -38 -39 -62 -22 -23 -38 -45 -36 -47 3 -2 26 10 52 27 48 31 113 50
113 34 0 -5 -10 -14 -22 -20 l-23 -11 23 3 c13 1 31 10 42 19 13 11 20 12 23
4 2 -7 21 -12 43 -12 28 0 39 -4 39 -15 0 -10 -8 -14 -22 -12 -13 2 -23 -2
-23 -7 0 -6 6 -11 14 -11 8 0 22 -3 32 -7 11 -4 15 -3 11 4 -12 20 31 21 49 2
9 -10 27 -19 38 -18 l21 0 -21 11 c-12 5 -27 21 -33 34 -6 14 -19 24 -31 24
-11 0 -23 6 -26 14 -6 15 -14 16 -106 18 -32 0 -58 4 -58 9 0 4 16 17 35 29
27 16 39 19 54 11 25 -14 41 -14 41 -1 0 5 -7 7 -15 4 -8 -4 -15 -1 -15 4 0 6
26 16 58 22 230 48 585 180 566 211 -8 13 -16 11 -49 -11z m-685 -274 c0 -2
-9 -6 -20 -9 -11 -3 -18 -1 -14 4 5 9 34 13 34 5z"/>
<path d="M8148 11236 c-15 -6 -47 -32 -71 -56 -142 -145 -234 -230 -242 -223
-4 4 -5 2 -1 -4 5 -9 1 -13 -11 -13 -19 0 -45 -24 -56 -53 -3 -9 -11 -17 -17
-17 -5 0 -28 -19 -49 -42 -39 -40 -71 -57 -71 -36 0 6 8 7 18 3 13 -5 14 -3 6
5 -9 9 -17 9 -33 1 -22 -12 -29 -41 -10 -41 6 0 -3 -16 -20 -35 -36 -41 -40
-52 -11 -32 40 28 534 488 536 500 1 4 2 13 3 20 1 8 4 8 11 -3 5 -8 10 -12
12 -10 2 3 12 15 22 28 21 25 21 25 -16 8z"/>
<path d="M11002 11200 c-13 -11 -18 -21 -12 -25 5 -3 10 -1 10 4 0 6 7 11 15
11 8 0 15 7 15 15 0 19 0 19 -28 -5z"/>
<path d="M7930 11171 c0 -5 -8 -12 -17 -14 -15 -4 -15 -5 -2 -6 9 0 22 6 29
14 9 10 9 15 1 15 -6 0 -11 -4 -11 -9z"/>
<path d="M7943 11105 c0 -8 4 -12 9 -9 5 3 6 10 3 15 -9 13 -12 11 -12 -6z"/>
<path d="M4720 11059 c0 -5 5 -7 10 -4 6 3 10 8 10 11 0 2 -4 4 -10 4 -5 0
-10 -5 -10 -11z"/>
<path d="M6343 11057 c-6 -10 13 -15 80 -20 l58 -4 82 -85 c45 -47 91 -89 101
-92 17 -6 16 -11 -20 -48 -74 -77 -94 -82 -384 -83 l-255 0 -60 -39 c-35 -22
-140 -119 -250 -230 -206 -208 -239 -232 -341 -242 -71 -7 -114 7 -114 36 0
11 -6 23 -14 26 -21 8 -176 -16 -208 -32 -34 -18 -56 -67 -59 -132 -3 -62 4
-72 50 -72 21 0 60 -7 87 -15 71 -21 78 -20 141 31 52 43 93 65 228 123 29 13
70 44 99 74 232 245 368 376 417 402 l54 29 250 1 c215 1 256 3 290 18 43 19
112 87 126 124 11 28 29 30 29 3 0 -16 7 -20 33 -21 17 -1 38 -1 45 0 6 1 12
-3 12 -9 0 -7 6 -8 19 -1 14 8 20 7 25 -4 3 -8 17 -15 31 -15 37 0 30 -15 -15
-33 -22 -8 -40 -11 -40 -6 0 5 5 9 10 9 6 0 10 4 10 9 0 14 -72 1 -90 -15 -13
-13 -11 -14 16 -8 22 4 40 1 58 -11 22 -15 31 -16 56 -5 17 7 30 16 30 21 0 8
27 1 75 -20 97 -42 162 -64 186 -64 45 0 34 -21 -23 -47 -29 -14 -64 -32 -77
-42 -36 -27 -1 -23 50 7 24 14 54 25 67 25 12 0 22 5 22 12 0 19 14 -1 15 -22
1 -11 -4 -25 -12 -31 -7 -6 -13 -16 -13 -22 0 -5 9 2 21 17 17 22 26 26 52 21
24 -5 38 -1 54 14 12 12 27 21 33 21 5 0 10 7 10 15 0 13 18 20 42 16 4 0 12
9 19 20 7 13 7 19 1 15 -6 -4 -15 2 -21 11 -10 17 -10 16 -11 -3 0 -25 -30
-41 -86 -47 -39 -4 -41 -3 -36 19 4 20 1 23 -13 18 -11 -5 -21 -1 -27 9 -6 12
-23 17 -59 17 -35 0 -51 4 -55 15 -4 10 -14 13 -29 9 -13 -3 -26 -1 -29 5 -4
6 -17 11 -30 11 -12 0 -26 4 -32 8 -5 4 -45 23 -89 41 -44 18 -88 37 -97 42
-10 5 -24 9 -32 9 -8 0 -16 5 -18 11 -2 5 -18 11 -36 11 -21 1 -31 5 -28 13 2
7 -14 16 -40 23 -32 9 -62 30 -120 87 -42 41 -79 75 -83 76 -38 5 -134 2 -138
-4z"/>
<path d="M6288 11053 c7 -3 16 -2 19 1 4 3 -2 6 -13 5 -11 0 -14 -3 -6 -6z"/>
<path d="M7215 11050 c-3 -5 3 -10 14 -10 12 0 21 5 21 10 0 6 -6 10 -14 10
-8 0 -18 -4 -21 -10z"/>
<path d="M7167 11024 c-4 -4 -44 -10 -90 -14 -81 -8 -148 -25 -214 -57 -27
-12 -32 -19 -27 -38 5 -21 3 -23 -18 -18 -12 3 -28 10 -34 15 -15 11 -46 -1
-41 -16 2 -6 19 -12 37 -13 19 -2 36 -7 39 -12 10 -14 35 -19 54 -9 17 9 18
10 2 22 -16 11 -16 14 -2 28 23 22 149 51 188 43 22 -5 29 -4 25 4 -4 6 -2 11
3 11 16 0 13 -16 -4 -34 -8 -8 -15 -18 -15 -23 -1 -13 -91 -64 -104 -59 -7 3
-7 5 2 5 11 1 18 31 6 31 -3 0 -20 -12 -39 -27 l-34 -27 31 -13 c17 -7 40 -13
52 -13 22 0 106 71 106 90 0 6 12 22 26 35 15 14 22 25 15 25 -23 0 -10 16 23
28 34 13 57 42 32 42 -7 0 -16 -3 -19 -6z"/>
<path d="M6375 11004 c-5 -1 -59 -5 -120 -8 -340 -17 -375 -34 -54 -26 137 3
204 9 206 16 4 12 -15 23 -32 18z"/>
<path d="M6448 10993 c6 -2 18 -2 25 0 6 3 1 5 -13 5 -14 0 -19 -2 -12 -5z"/>
<path d="M4768 10973 c-10 -2 -18 -9 -18 -14 0 -13 13 -11 36 6 19 14 14 17
-18 8z"/>
<path d="M6420 10970 c0 -5 10 -10 23 -10 18 0 19 2 7 10 -19 13 -30 13 -30 0z"/>
<path d="M4708 10963 c7 -3 16 -2 19 1 4 3 -2 6 -13 5 -11 0 -14 -3 -6 -6z"/>
<path d="M5376 10955 c-11 -8 -15 -15 -10 -15 6 0 19 7 30 15 10 8 15 14 9 14
-5 0 -19 -6 -29 -14z"/>
<path d="M6475 10960 c-3 -5 3 -10 15 -10 12 0 18 5 15 10 -3 6 -10 10 -15 10
-5 0 -12 -4 -15 -10z"/>
<path d="M5870 10950 c0 -4 -10 -12 -22 -18 -24 -11 -154 -122 -143 -122 3 0
31 19 62 43 90 68 117 86 133 87 8 0 22 5 30 10 11 7 5 9 -22 8 -21 -1 -38 -4
-38 -8z"/>
<path d="M4730 10940 c0 -5 5 -10 11 -10 5 0 7 5 4 10 -3 6 -8 10 -11 10 -2 0
-4 -4 -4 -10z"/>
<path d="M6781 10941 c-10 -6 -10 -10 -1 -16 13 -8 24 -1 19 14 -3 6 -10 7
-18 2z"/>
<path d="M5499 10923 c-13 -16 -12 -17 4 -4 16 13 21 21 13 21 -2 0 -10 -8
-17 -17z"/>
<path d="M6166 10932 c-7 -11 132 -13 174 -3 27 7 13 9 -67 10 -56 1 -104 -3
-107 -7z"/>
<path d="M6530 10930 c0 -5 7 -10 16 -10 8 0 12 5 9 10 -3 6 -10 10 -16 10 -5
0 -9 -4 -9 -10z"/>
<path d="M6418 10923 c7 -3 16 -2 19 1 4 3 -2 6 -13 5 -11 0 -14 -3 -6 -6z"/>
<path d="M6940 10926 c0 -2 7 -6 15 -10 8 -3 15 -1 15 4 0 6 -7 10 -15 10 -8
0 -15 -2 -15 -4z"/>
<path d="M6028 10913 c7 -3 16 -2 19 1 4 3 -2 6 -13 5 -11 0 -14 -3 -6 -6z"/>
<path d="M6900 10890 c0 -5 6 -10 14 -10 8 0 18 5 21 10 3 6 -3 10 -14 10 -12
0 -21 -4 -21 -10z"/>
<path d="M4743 10883 c4 -3 2 -12 -5 -20 -6 -7 -8 -16 -4 -20 6 -7 35 25 36
40 0 4 -7 7 -17 7 -9 0 -13 -3 -10 -7z"/>
<path d="M10645 10870 c-3 -5 -1 -10 4 -10 6 0 11 5 11 10 0 6 -2 10 -4 10 -3
0 -8 -4 -11 -10z"/>
<path d="M7310 10860 c0 -5 9 -10 20 -10 11 0 20 5 20 10 0 6 -9 10 -20 10
-11 0 -20 -4 -20 -10z"/>
<path d="M7133 10843 c-26 -17 -31 -43 -8 -43 8 0 15 -7 15 -15 0 -8 5 -15 10
-15 6 0 10 12 10 26 0 17 -4 23 -12 18 -9 -6 -9 -3 0 9 20 24 10 37 -15 20z"/>
<path d="M7440 10830 c-9 -6 -10 -10 -3 -10 6 0 15 5 18 10 8 12 4 12 -15 0z"/>
<path d="M6733 10773 c-13 -2 -23 -9 -23 -14 0 -14 24 -11 46 6 19 15 16 16
-23 8z"/>
<path d="M5682 10740 c-25 -23 -28 -32 -9 -24 11 4 42 44 34 44 -2 0 -13 -9
-25 -20z"/>
<path d="M7495 10753 c-57 -7 -62 -13 -26 -30 30 -15 31 -18 16 -29 -9 -7 -17
-26 -17 -43 -1 -45 -46 -86 -90 -83 -24 2 -40 -4 -59 -21 -18 -17 -30 -22 -41
-16 -12 7 -15 3 -14 -20 l1 -28 42 24 c63 35 44 4 -28 -47 -33 -23 -58 -45
-55 -48 7 -6 -41 -52 -56 -52 -5 0 0 9 13 20 14 11 18 19 11 20 -8 0 -30 -17
-50 -37 -62 -63 -127 -106 -287 -186 -33 -17 -63 -35 -66 -40 -4 -6 -14 -7
-23 -4 -16 7 -76 -10 -76 -22 0 -10 38 -31 42 -22 2 5 14 11 28 15 l25 7 -25
-20 -25 -20 25 5 c24 6 23 5 -4 -10 -15 -9 -32 -13 -37 -10 -5 3 -9 2 -9 -3 0
-26 -296 -113 -412 -122 -10 0 -18 -5 -18 -11 0 -24 294 47 450 110 68 27 263
141 348 204 35 26 125 106 202 179 76 73 154 144 173 159 18 15 45 44 59 65
28 41 44 124 25 122 -7 -1 -25 -4 -42 -6z m-515 -563 c-8 -5 -19 -10 -25 -10
-5 0 -3 5 5 10 8 5 20 10 25 10 6 0 3 -5 -5 -10z m-220 -70 c0 -5 -4 -10 -9
-10 -5 0 -18 -3 -28 -6 -16 -5 -16 -4 1 10 23 18 36 20 36 6z"/>
<path d="M6630 10709 c0 -5 5 -7 10 -4 6 3 10 8 10 11 0 2 -4 4 -10 4 -5 0
-10 -5 -10 -11z"/>
<path d="M6690 10710 c-9 -6 -10 -10 -3 -10 6 0 15 5 18 10 8 12 4 12 -15 0z"/>
<path d="M6735 10696 c-16 -6 -34 -14 -40 -17 -129 -83 -334 -161 -488 -185
-56 -8 -124 -20 -152 -24 -27 -5 -67 -12 -87 -15 -24 -4 -38 -11 -38 -20 0
-17 26 -20 35 -4 4 6 19 7 37 4 18 -4 33 -3 37 4 4 6 40 15 81 21 41 6 91 13
110 16 19 3 55 7 80 10 53 6 182 59 353 146 80 40 92 40 118 4 4 -5 24 -12 45
-15 29 -5 38 -11 36 -24 -2 -13 4 -17 26 -17 16 0 32 3 35 6 7 7 -30 59 -42
59 -4 0 -21 14 -37 31 -33 33 -58 38 -109 20z"/>
<path d="M5549 10615 c-48 -46 -84 -86 -81 -89 10 -11 22 -6 22 9 0 8 4 15 8
15 9 0 152 136 152 145 0 15 -23 -3 -101 -80z"/>
<path d="M6948 10693 c6 -2 18 -2 25 0 6 3 1 5 -13 5 -14 0 -19 -2 -12 -5z"/>
<path d="M8657 10693 c-4 -3 -7 -11 -7 -17 0 -6 5 -5 12 2 6 6 9 14 7 17 -3 3
-9 2 -12 -2z"/>
<path d="M5038 10674 c-99 -24 -178 -71 -178 -106 0 -10 -6 -21 -14 -24 -8 -3
-16 -14 -19 -23 -3 -14 7 -24 42 -40 26 -11 55 -21 65 -21 9 0 31 -7 48 -16
20 -10 59 -17 108 -18 71 -1 78 1 113 29 23 20 50 32 73 33 38 3 114 36 114
51 0 4 -22 6 -49 3 l-48 -4 -49 60 c-30 37 -64 66 -87 76 -44 19 -44 19 -119
0z"/>
<path d="M5549 10673 c-13 -16 -12 -17 4 -4 9 7 17 15 17 17 0 8 -8 3 -21 -13z"/>
<path d="M6581 10674 c-19 -8 -32 -17 -28 -20 5 -6 67 23 67 31 0 6 0 7 -39
-11z"/>
<path d="M6988 10673 c7 -3 16 -2 19 1 4 3 -2 6 -13 5 -11 0 -14 -3 -6 -6z"/>
<path d="M7030 10654 c0 -14 3 -15 18 -3 9 7 19 15 21 16 2 2 -5 3 -17 3 -14
0 -22 -6 -22 -16z"/>
<path d="M6275 10650 c-3 -5 -3 -14 0 -20 3 -5 2 -10 -3 -10 -6 0 -12 7 -16
15 -7 19 -33 19 -52 0 -12 -11 -20 -12 -39 -3 -35 16 -45 1 -15 -22 31 -24 70
-32 70 -15 0 8 8 11 19 8 11 -3 30 2 43 11 12 9 16 16 9 16 -8 0 -11 6 -7 15
6 17 0 20 -9 5z"/>
<path d="M6480 10650 c0 -5 7 -10 16 -10 8 0 12 5 9 10 -3 6 -10 10 -16 10 -5
0 -9 -4 -9 -10z"/>
<path d="M6040 10639 c0 -5 5 -7 10 -4 6 3 10 8 10 11 0 2 -4 4 -10 4 -5 0
-10 -5 -10 -11z"/>
<path d="M6368 10643 c7 -3 16 -2 19 1 4 3 -2 6 -13 5 -11 0 -14 -3 -6 -6z"/>
<path d="M7125 10630 c-4 -6 -16 -8 -28 -5 -12 2 -16 2 -9 -1 10 -5 10 -9 1
-20 -6 -8 -9 -14 -5 -14 9 0 48 23 64 38 11 10 11 12 -2 12 -8 0 -18 -5 -21
-10z"/>
<path d="M5988 10623 c6 -2 18 -2 25 0 6 3 1 5 -13 5 -14 0 -19 -2 -12 -5z"/>
<path d="M6690 10615 c-14 -16 -10 -18 14 -9 9 3 16 10 16 15 0 14 -16 11 -30
-6z"/>
<path d="M6740 10620 c20 -13 43 -13 35 0 -3 6 -16 10 -28 10 -18 0 -19 -2 -7
-10z"/>
<path d="M6425 10600 c-16 -11 -40 -20 -52 -20 -12 0 -25 -4 -28 -10 -9 -15 3
-13 72 12 34 12 60 25 57 30 -8 12 -16 10 -49 -12z"/>
<path d="M6030 10599 c-14 -6 -43 -14 -64 -17 -22 -4 -41 -13 -44 -20 -3 -10
5 -12 34 -6 22 3 44 11 50 15 6 5 32 12 58 15 26 4 49 11 52 15 7 12 -55 10
-86 -2z"/>
<path d="M6640 10590 c-8 -4 -68 -34 -132 -65 -65 -31 -118 -61 -118 -66 0
-17 37 -9 65 15 16 14 40 28 54 31 50 12 172 75 166 85 -7 12 -15 12 -35 0z"/>
<path d="M5660 10575 c-7 -9 -11 -18 -8 -20 3 -3 11 1 18 10 7 9 11 18 8 20
-3 3 -11 -1 -18 -10z"/>
<path d="M6728 10574 c-27 -8 -48 -19 -48 -24 0 -15 27 -12 61 6 17 8 37 13
44 10 7 -2 16 2 19 10 7 18 -14 17 -76 -2z"/>
<path d="M6144 10570 c-15 -13 -113 -42 -123 -36 -5 4 -11 1 -13 -6 -5 -15
-119 -28 -136 -15 -9 7 -11 5 -5 -8 5 -15 3 -17 -12 -12 -9 4 -24 2 -32 -4
-24 -21 5 -28 54 -13 24 7 83 19 131 25 48 7 90 17 94 23 4 5 48 11 98 12 51
2 95 5 97 8 3 3 -6 10 -19 17 -21 9 -30 8 -51 -6 -21 -13 -27 -14 -34 -2 -11
18 -38 28 -49 17z"/>
<path d="M6310 10560 c0 -5 5 -10 10 -10 6 0 10 5 10 10 0 6 -4 10 -10 10 -5
0 -10 -4 -10 -10z"/>
<path d="M7143 10548 c-43 -30 -42 -40 2 -20 19 9 35 22 35 29 0 17 0 17 -37
-9z"/>
<path d="M5885 10550 c-3 -5 -2 -10 4 -10 5 0 13 5 16 10 3 6 2 10 -4 10 -5 0
-13 -4 -16 -10z"/>
<path d="M6831 10550 c-19 -5 -41 -6 -50 -3 -13 4 -13 3 -2 -5 21 -15 4 -32
-33 -32 -34 0 -91 -23 -102 -42 -4 -7 0 -7 12 0 11 5 43 12 72 15 30 4 64 15
79 27 14 11 31 20 38 20 7 0 18 7 25 15 14 16 11 17 -39 5z"/>
<path d="M6893 10535 c-27 -19 -31 -40 -5 -30 9 4 26 9 37 11 45 8 55 10 61
17 4 4 -1 7 -12 7 -10 0 -28 3 -39 6 -11 2 -30 -2 -42 -11z"/>
<path d="M6640 10530 c-13 -8 -13 -10 2 -10 9 0 20 5 23 10 8 13 -5 13 -25 0z"/>
<path d="M5407 10494 c-22 -14 -36 -28 -33 -31 7 -7 76 38 76 50 0 9 1 10 -43
-19z"/>
<path d="M6995 10506 c-11 -8 -14 -15 -8 -19 6 -4 16 0 23 8 17 21 8 28 -15
11z"/>
<path d="M7192 10504 c-7 -8 -8 -14 -3 -14 10 0 25 19 20 25 -2 1 -10 -3 -17
-11z"/>
<path d="M7075 10500 c3 -5 10 -10 16 -10 5 0 9 5 9 10 0 6 -7 10 -16 10 -8 0
-12 -4 -9 -10z"/>
<path d="M4780 10490 c0 -5 9 -10 21 -10 11 0 17 5 14 10 -3 6 -13 10 -21 10
-8 0 -14 -4 -14 -10z"/>
<path d="M5591 10418 c-59 -61 -87 -81 -130 -97 -55 -20 -144 -41 -188 -44
-11 -1 -19 -5 -16 -9 13 -23 184 15 237 52 44 31 183 167 175 173 -2 2 -38
-32 -78 -75z"/>
<path d="M6793 10471 c-30 -15 -52 -51 -32 -51 5 0 9 5 9 10 0 6 20 19 45 30
25 11 45 22 45 25 0 9 -35 2 -67 -14z"/>
<path d="M6945 10480 c-3 -5 -2 -10 4 -10 5 0 13 5 16 10 3 6 2 10 -4 10 -5 0
-13 -4 -16 -10z"/>
<path d="M6144 10445 c-10 -7 -24 -11 -31 -8 -7 3 -13 0 -13 -6 0 -6 -13 -11
-29 -11 -37 0 -49 -16 -20 -25 36 -12 189 10 189 26 0 5 -11 7 -25 3 -18 -4
-25 -2 -25 9 0 21 -25 28 -46 12z m31 -15 c3 -5 -1 -10 -10 -10 -9 0 -13 5
-10 10 3 6 8 10 10 10 2 0 7 -4 10 -10z"/>
<path d="M6270 10450 c-21 -6 -23 -8 -8 -15 10 -4 32 -2 49 4 24 8 36 8 45 0
11 -9 14 -8 14 5 0 12 -9 16 -37 15 -21 -1 -49 -4 -63 -9z"/>
<path d="M6616 10445 c4 -8 10 -15 15 -15 4 0 6 7 3 15 -4 8 -10 15 -15 15 -4
0 -6 -7 -3 -15z"/>
<path d="M6208 10443 c6 -2 18 -2 25 0 6 3 1 5 -13 5 -14 0 -19 -2 -12 -5z"/>
<path d="M6473 10414 c-20 -21 -42 -34 -57 -34 -14 0 -46 -11 -72 -25 -26 -14
-58 -25 -70 -25 -13 0 -24 -5 -24 -11 0 -8 12 -10 34 -6 42 7 106 36 106 48 0
5 10 9 23 9 25 0 117 55 117 70 0 19 -25 8 -57 -26z"/>
<path d="M6674 10434 c-18 -14 -18 -15 6 -8 31 8 50 24 29 24 -8 0 -24 -7 -35
-16z"/>
<path d="M7178 10433 c7 -3 16 -2 19 1 4 3 -2 6 -13 5 -11 0 -14 -3 -6 -6z"/>
<path d="M5756 10401 c-27 -9 -57 -27 -67 -40 -23 -28 -17 -41 9 -18 10 9 48
26 85 37 36 11 69 25 72 30 9 15 -44 10 -99 -9z"/>
<path d="M6585 10410 c-19 -8 -19 -9 3 -9 12 -1 22 4 22 9 0 6 -1 10 -2 9 -2
0 -12 -4 -23 -9z"/>
<path d="M5875 10390 c3 -5 8 -10 11 -10 2 0 4 5 4 10 0 6 -5 10 -11 10 -5 0
-7 -4 -4 -10z"/>
<path d="M5909 10378 c-10 -18 -9 -20 6 -15 9 4 23 7 31 7 21 0 17 17 -6 23
-14 4 -24 -1 -31 -15z"/>
<path d="M6950 10380 c0 -5 5 -10 11 -10 5 0 7 5 4 10 -3 6 -8 10 -11 10 -2 0
-4 -4 -4 -10z"/>
<path d="M5400 10369 c0 -5 5 -7 10 -4 6 3 10 8 10 11 0 2 -4 4 -10 4 -5 0
-10 -5 -10 -11z"/>
<path d="M6018 10363 c6 -2 18 -2 25 0 6 3 1 5 -13 5 -14 0 -19 -2 -12 -5z"/>
<path d="M5370 10349 c0 -5 5 -7 10 -4 6 3 10 8 10 11 0 2 -4 4 -10 4 -5 0
-10 -5 -10 -11z"/>
<path d="M6865 10350 c-3 -5 -1 -10 4 -10 6 0 11 5 11 10 0 6 -2 10 -4 10 -3
0 -8 -4 -11 -10z"/>
<path d="M6760 10340 c0 -5 5 -10 10 -10 6 0 10 5 10 10 0 6 -4 10 -10 10 -5
0 -10 -4 -10 -10z"/>
<path d="M7047 10337 c-3 -7 -23 -19 -46 -26 -23 -6 -41 -15 -41 -20 0 -10
-74 -51 -92 -51 -8 0 -23 -9 -34 -21 -18 -20 -17 -20 31 2 28 13 64 32 80 41
17 10 46 26 66 37 38 21 68 51 51 51 -5 0 -12 -6 -15 -13z"/>
<path d="M6095 10330 c-3 -5 1 -10 9 -10 9 0 16 5 16 10 0 6 -4 10 -9 10 -6 0
-13 -4 -16 -10z"/>
<path d="M6160 10331 c0 -5 10 -11 23 -15 36 -9 42 -7 21 9 -21 16 -44 19 -44
6z"/>
<path d="M5975 10310 c-3 -5 1 -10 10 -10 9 0 13 5 10 10 -3 6 -8 10 -10 10
-2 0 -7 -4 -10 -10z"/>
<path d="M5928 10293 c7 -3 16 -2 19 1 4 3 -2 6 -13 5 -11 0 -14 -3 -6 -6z"/>
<path d="M5580 10234 l-25 -25 38 21 c39 23 45 30 25 29 -7 0 -24 -12 -38 -25z"/>
<path d="M6560 10210 c0 -5 5 -10 10 -10 6 0 10 5 10 10 0 6 -4 10 -10 10 -5
0 -10 -4 -10 -10z"/>
<path d="M6726 10185 c-8 -8 -20 -15 -27 -15 -7 0 -9 -3 -6 -6 8 -9 67 16 67
27 0 14 -17 11 -34 -6z"/>
<path d="M5506 10165 c-16 -12 -17 -15 -4 -15 8 0 21 7 28 15 16 19 1 19 -24
0z"/>
<path d="M5438 10133 c7 -3 16 -2 19 1 4 3 -2 6 -13 5 -11 0 -14 -3 -6 -6z"/>
<path d="M6590 10086 c-36 -13 -90 -33 -120 -44 -30 -12 -63 -22 -72 -22 -9 0
-20 -5 -23 -11 -8 -13 58 -2 95 16 14 6 54 19 90 29 36 10 73 22 82 27 23 12
31 11 23 -1 -3 -5 0 -7 9 -4 17 6 10 34 -8 33 -6 0 -40 -11 -76 -23z"/>
<path d="M6445 10070 c-3 -6 1 -7 9 -4 18 7 21 14 7 14 -6 0 -13 -4 -16 -10z"/>
<path d="M6255 9980 c-4 -6 6 -7 27 -3 44 8 48 13 10 13 -17 0 -34 -4 -37 -10z"/>
<path d="M6078 9969 c-75 -5 -128 -14 -148 -24 -44 -23 -33 -27 20 -9 26 9 70
14 109 13 36 -2 92 3 124 10 58 13 75 22 35 20 -13 -1 -76 -5 -140 -10z"/>
<path d="M6028 9893 c6 -2 18 -2 25 0 6 3 1 5 -13 5 -14 0 -19 -2 -12 -5z"/>
<path d="M5340 7284 c0 -8 -4 -13 -9 -10 -4 3 -18 -5 -30 -18 l-22 -23 25 4
c14 3 24 9 21 13 -6 10 24 22 37 14 6 -4 5 3 -1 15 -14 25 -21 27 -21 5z"/>
<path d="M5290 7160 c0 -5 5 -10 10 -10 6 0 10 5 10 10 0 6 -4 10 -10 10 -5 0
-10 -4 -10 -10z"/>
<path d="M5285 7121 c-16 -3 -25 -9 -19 -13 13 -9 54 1 54 13 0 5 -1 8 -2 8
-2 -1 -16 -4 -33 -8z"/>
<path d="M5367 7103 c-12 -11 -8 -23 8 -23 8 0 15 7 15 15 0 16 -12 20 -23 8z"/>
<path d="M5470 7100 c0 -5 5 -10 10 -10 6 0 10 5 10 10 0 6 -4 10 -10 10 -5 0
-10 -4 -10 -10z"/>
<path d="M5610 7100 c0 -5 5 -10 10 -10 6 0 10 5 10 10 0 6 -4 10 -10 10 -5 0
-10 -4 -10 -10z"/>
<path d="M5256 7072 c-5 -8 -2 -20 8 -31 9 -10 16 -23 16 -29 0 -7 5 -12 10
-12 14 0 13 13 -2 28 -9 9 -6 12 16 12 15 0 25 4 21 10 -9 14 -45 12 -46 -2
-1 -7 -4 -2 -8 12 -5 18 -9 21 -15 12z"/>
<path d="M5395 7060 c-3 -5 1 -10 9 -10 9 0 16 5 16 10 0 6 -4 10 -9 10 -6 0
-13 -4 -16 -10z"/>
<path d="M5353 7029 c9 -5 17 -17 17 -26 0 -13 3 -14 11 -6 13 13 -10 43 -33
43 -8 0 -7 -4 5 -11z"/>
<path d="M5860 6980 c-13 -11 -19 -20 -13 -20 5 0 18 9 28 20 10 11 16 20 13
20 -3 0 -15 -9 -28 -20z"/>
<path d="M5545 6935 c0 -19 5 -35 10 -35 6 0 10 5 9 10 -1 6 -2 21 -2 35 -3
38 -17 30 -17 -10z"/>
<path d="M5770 6925 c0 -7 30 -13 34 -7 3 4 -4 9 -15 9 -10 1 -19 0 -19 -2z"/>
<path d="M5585 6879 c-19 -8 -19 -8 3 -15 16 -5 21 -12 17 -23 -4 -11 -3 -13
5 -5 6 6 7 19 3 31 -6 15 -13 18 -28 12z"/>
<path d="M5735 6876 c-21 -9 -26 -14 -16 -20 8 -5 21 -1 34 13 25 24 23 25
-18 7z"/>
<path d="M9405 8490 c-3 -5 -1 -10 4 -10 6 0 11 5 11 10 0 6 -2 10 -4 10 -3 0
-8 -4 -11 -10z"/>
<path d="M8926 7935 c25 -19 40 -19 24 0 -7 8 -20 15 -28 15 -13 0 -12 -3 4
-15z"/>
<path d="M8104 7449 c-19 -22 -19 -22 4 -8 12 8 22 17 22 21 0 12 -6 9 -26
-13z"/>
<path d="M8010 7359 c-40 -37 -44 -43 -15 -21 38 28 83 72 74 72 -2 0 -29 -23
-59 -51z"/>
<path d="M8555 7390 c-3 -5 -1 -10 4 -10 6 0 11 5 11 10 0 6 -2 10 -4 10 -3 0
-8 -4 -11 -10z"/>
<path d="M7942 7375 c-11 -13 -9 -15 8 -15 11 0 20 7 20 15 0 19 -11 19 -28 0z"/>
<path d="M7926 7333 c-6 -14 -5 -15 5 -6 7 7 10 15 7 18 -3 3 -9 -2 -12 -12z"/>
<path d="M7849 7230 c-9 -5 -24 -22 -34 -37 -16 -25 -14 -25 19 6 44 42 48 50
15 31z"/>
<path d="M8493 7185 c-15 -16 -16 -25 -5 -25 4 0 13 9 20 20 14 23 3 26 -15 5z"/>
<path d="M7739 7113 c-13 -16 -12 -17 4 -4 9 7 17 15 17 17 0 8 -8 3 -21 -13z"/>
<path d="M7660 7052 c-25 -20 -55 -47 -68 -59 -12 -13 -26 -23 -31 -23 -12 0
-111 -103 -105 -109 3 -3 8 -1 12 5 4 5 57 52 117 103 140 120 141 121 130
120 -6 0 -30 -17 -55 -37z"/>
<path d="M8375 6980 c3 -5 10 -10 16 -10 5 0 9 5 9 10 0 6 -7 10 -16 10 -8 0
-12 -4 -9 -10z"/>
<path d="M8350 6949 c0 -5 5 -7 10 -4 6 3 10 8 10 11 0 2 -4 4 -10 4 -5 0 -10
-5 -10 -11z"/>
<path d="M8296 6839 c-11 -10 -17 -21 -14 -24 2 -3 15 6 28 20 27 29 14 33
-14 4z"/>
<path d="M7489 6803 c-13 -16 -12 -17 4 -4 9 7 17 15 17 17 0 8 -8 3 -21 -13z"/>
<path d="M8257 6803 c-4 -3 -7 -11 -7 -17 0 -6 5 -5 12 2 6 6 9 14 7 17 -3 3
-9 2 -12 -2z"/>
<path d="M8200 6748 c-46 -50 -44 -53 5 -6 21 20 37 39 35 41 -3 2 -21 -13
-40 -35z"/>
<path d="M7378 6717 c-42 -34 -89 -71 -104 -82 -58 -42 -78 -66 -27 -33 46 30
83 60 188 151 58 50 19 26 -57 -36z"/>
<path d="M7300 6740 c-9 -6 -10 -10 -3 -10 6 0 15 5 18 10 8 12 4 12 -15 0z"/>
<path d="M7104 6595 c-10 -8 -14 -15 -8 -15 6 0 17 7 24 15 16 19 9 19 -16 0z"/>
<path d="M7049 6553 c-13 -15 -12 -15 9 -4 23 12 28 21 13 21 -5 0 -15 -7 -22
-17z"/>
<path d="M7100 6509 c-47 -34 -74 -58 -60 -54 14 5 42 22 63 39 118 95 117
100 -3 15z"/>
<path d="M6984 6504 c-18 -14 -18 -15 4 -4 12 6 22 13 22 15 0 8 -5 6 -26 -11z"/>
<path d="M6675 6440 c-3 -5 -2 -10 4 -10 5 0 13 5 16 10 3 6 2 10 -4 10 -5 0
-13 -4 -16 -10z"/>
<path d="M6728 6443 c7 -3 16 -2 19 1 4 3 -2 6 -13 5 -11 0 -14 -3 -6 -6z"/>
<path d="M6980 6420 c-14 -11 -20 -20 -14 -20 6 0 19 9 29 20 23 25 17 25 -15
0z"/>
<path d="M6600 6360 c0 -5 5 -10 10 -10 6 0 10 5 10 10 0 6 -4 10 -10 10 -5 0
-10 -4 -10 -10z"/>
<path d="M6787 6246 c-4 -10 -1 -13 9 -9 7 3 14 9 14 14 0 14 -17 10 -23 -5z"/>
<path d="M6980 6219 c14 -11 33 -27 43 -34 9 -8 17 -11 17 -7 0 4 5 0 10 -8 8
-13 10 -12 10 3 0 9 -7 17 -15 17 -8 0 -15 5 -15 10 0 6 -6 10 -14 10 -7 0
-19 7 -26 15 -7 8 -18 15 -24 15 -6 -1 0 -10 14 -21z"/>
<path d="M6704 6206 c-10 -8 -15 -18 -11 -22 4 -4 15 0 24 9 22 21 12 31 -13
13z"/>
<path d="M7110 6181 c0 -6 4 -13 10 -16 6 -3 7 1 4 9 -7 18 -14 21 -14 7z"/>
<path d="M7250 6090 c0 -5 5 -10 11 -10 5 0 7 5 4 10 -3 6 -8 10 -11 10 -2 0
-4 -4 -4 -10z"/>
<path d="M7280 6020 c0 -5 5 -10 10 -10 6 0 10 5 10 10 0 6 -4 10 -10 10 -5 0
-10 -4 -10 -10z"/>
<path d="M5835 5829 c-4 -6 -5 -12 -2 -15 2 -3 7 2 10 11 7 17 1 20 -8 4z"/>
<path d="M4404 4204 c-115 -113 -193 -194 -174 -180 38 28 399 386 389 386 -4
0 -100 -93 -215 -206z"/>
<path d="M8905 8500 c-3 -5 -2 -10 4 -10 5 0 13 5 16 10 3 6 2 10 -4 10 -5 0
-13 -4 -16 -10z"/>
<path d="M7917 7623 c-4 -3 -7 -11 -7 -17 0 -6 5 -5 12 2 6 6 9 14 7 17 -3 3
-9 2 -12 -2z"/>
<path d="M7717 7542 c-30 -31 -38 -54 -9 -25 23 24 46 53 40 53 -2 0 -16 -13
-31 -28z"/>
<path d="M7630 7449 l-45 -41 48 33 c26 18 47 36 47 41 0 12 -1 11 -50 -33z"/>
<path d="M7810 7465 c-20 -24 -6 -28 15 -5 10 11 13 20 8 20 -6 0 -16 -7 -23
-15z"/>
<path d="M7597 7463 c-4 -3 -7 -11 -7 -17 0 -6 5 -5 12 2 6 6 9 14 7 17 -3 3
-9 2 -12 -2z"/>
<path d="M7744 7368 c-31 -36 -47 -58 -41 -58 3 0 20 18 37 40 34 43 36 55 4
18z"/>
<path d="M7528 7373 c7 -3 16 -2 19 1 4 3 -2 6 -13 5 -11 0 -14 -3 -6 -6z"/>
<path d="M9770 8814 c0 -8 5 -12 10 -9 6 4 8 11 5 16 -9 14 -15 11 -15 -7z"/>
<path d="M9666 8735 c-3 -8 -1 -15 4 -15 13 0 22 18 11 24 -5 3 -11 -1 -15 -9z"/>
<path d="M9475 8550 c-3 -5 -1 -10 4 -10 6 0 11 5 11 10 0 6 -2 10 -4 10 -3 0
-8 -4 -11 -10z"/>
<path d="M10893 6063 c9 -2 25 -2 35 0 9 3 1 5 -18 5 -19 0 -27 -2 -17 -5z"/>
<path d="M10775 6040 c3 -5 10 -10 16 -10 5 0 9 5 9 10 0 6 -7 10 -16 10 -8 0
-12 -4 -9 -10z"/>
<path d="M10830 6030 c-12 -8 -11 -10 7 -10 12 0 25 5 28 10 8 13 -15 13 -35
0z"/>
<path d="M11026 5991 c-3 -5 1 -11 9 -14 9 -4 12 -1 8 9 -6 16 -10 17 -17 5z"/>
<path d="M10920 5949 c0 -5 9 -9 20 -9 11 0 20 2 20 4 0 2 -9 6 -20 9 -11 3
-20 1 -20 -4z"/>
<path d="M10698 5943 c6 -2 18 -2 25 0 6 3 1 5 -13 5 -14 0 -19 -2 -12 -5z"/>
<path d="M10888 5943 c7 -3 16 -2 19 1 4 3 -2 6 -13 5 -11 0 -14 -3 -6 -6z"/>
<path d="M7928 5628 c5 -5 16 -8 23 -6 8 3 3 7 -10 11 -17 4 -21 3 -13 -5z"/>
<path d="M7760 5450 c0 -6 7 -10 15 -10 8 0 15 2 15 4 0 2 -7 6 -15 10 -8 3
-15 1 -15 -4z"/>
<path d="M7315 4890 c-3 -5 1 -10 10 -10 9 0 13 5 10 10 -3 6 -8 10 -10 10 -2
0 -7 -4 -10 -10z"/>
<path d="M7280 4861 c0 -5 -3 -16 -6 -25 -3 -9 -1 -16 6 -16 6 0 9 4 5 9 -3 5
-1 12 5 16 13 8 13 25 0 25 -5 0 -10 -4 -10 -9z"/>
<path d="M7350 4538 c0 -4 -12 -14 -27 -22 -19 -10 -22 -15 -11 -16 9 0 23 6
30 13 7 6 20 13 28 15 8 2 21 8 30 13 11 6 6 8 -17 7 -18 -1 -33 -6 -33 -10z"/>
<path d="M7238 4493 c-10 -2 -18 -9 -18 -14 0 -6 8 -5 20 1 11 6 20 13 20 15
0 3 -1 4 -2 4 -2 -1 -11 -3 -20 -6z"/>
<path d="M7180 4470 c-9 -6 -10 -10 -3 -10 6 0 15 5 18 10 8 12 4 12 -15 0z"/>
<path d="M7117 4459 c7 -7 15 -10 18 -7 3 3 -2 9 -12 12 -14 6 -15 5 -6 -5z"/>
<path d="M9988 5763 c7 -3 16 -2 19 1 4 3 -2 6 -13 5 -11 0 -14 -3 -6 -6z"/>
<path d="M9940 5750 c0 -5 5 -10 10 -10 6 0 10 5 10 10 0 6 -4 10 -10 10 -5 0
-10 -4 -10 -10z"/>
<path d="M10000 5732 c0 -13 42 -34 51 -25 5 5 -4 14 -21 20 -17 6 -30 8 -30
5z"/>
<path d="M9740 5645 c-32 -18 -25 -18 25 0 22 8 31 14 20 14 -11 0 -31 -6 -45
-14z"/>
<path d="M9617 5401 c-27 -6 -27 -6 18 -28 30 -15 47 -18 51 -11 4 7 2 8 -4 4
-7 -4 -12 -2 -12 4 0 6 -4 8 -10 5 -5 -3 -10 -1 -10 4 0 6 5 11 10 11 6 0 10
5 10 10 0 11 -10 11 -53 1z"/>
<path d="M9530 5300 c-9 -6 -10 -10 -3 -10 6 0 15 5 18 10 8 12 4 12 -15 0z"/>
<path d="M9210 5170 c0 -5 5 -10 11 -10 5 0 7 5 4 10 -3 6 -8 10 -11 10 -2 0
-4 -4 -4 -10z"/>
<path d="M9290 5150 c-8 -5 -12 -11 -10 -14 3 -2 14 2 24 10 22 15 10 19 -14
4z"/>
<path d="M9133 5075 c0 -8 4 -12 9 -9 4 3 8 9 8 15 0 5 -4 9 -8 9 -5 0 -9 -7
-9 -15z"/>
<path d="M8807 4983 c-12 -12 -7 -22 8 -17 8 4 15 10 15 15 0 11 -14 12 -23 2z"/>
<path d="M8813 4733 c15 -2 37 -2 50 0 12 2 0 4 -28 4 -27 0 -38 -2 -22 -4z"/>
<path d="M8463 4723 c48 -2 126 -2 175 0 48 1 8 3 -88 3 -96 0 -136 -2 -87 -3z"/>
<path d="M7430 4312 c0 -12 19 -26 26 -19 2 2 -2 10 -11 17 -9 8 -15 8 -15 2z"/>
<path d="M7475 4290 c4 -6 11 -8 16 -5 14 9 11 15 -7 15 -8 0 -12 -5 -9 -10z"/>
<path d="M7288 4193 c7 -3 16 -2 19 1 4 3 -2 6 -13 5 -11 0 -14 -3 -6 -6z"/>
<path d="M7348 4193 c7 -3 16 -2 19 1 4 3 -2 6 -13 5 -11 0 -14 -3 -6 -6z"/>
<path d="M5775 3550 c3 -5 10 -10 16 -10 5 0 9 5 9 10 0 6 -7 10 -16 10 -8 0
-12 -4 -9 -10z"/>
</g>
</svg>
